<?xml version="1.0" encoding="utf-8"?>
<!-- Generator: Adobe Illustrator 23.0.3, SVG Export Plug-In . SVG Version: 6.00 Build 0)  -->
<svg version="1.0" id="Livello_1" xmlns="http://www.w3.org/2000/svg" xmlns:xlink="http://www.w3.org/1999/xlink" x="0px" y="0px"
	 viewBox="0 0 225.54 203.22" enable-background="new 0 0 225.54 203.22" xml:space="preserve">
<g>
	<rect x="0.28" fill="#808080" width="225.25" height="4.39"/>
	<path fill="#808080" d="M10.09,90.19c17.63,0,30.63-0.71,48.26-0.03c4.83,0.19,9.26,1.71,14.38,1.17
		c4.24-0.45,9.22-3.89,12.76-3.98c9.65-0.25,13.71,6.52,22.51,7.75c2.27-10.16,43.23-4.18,53.41-4.87
		c9.79-0.67,48.29-4.07,55.21,3.85c1.38,1.57,2.59,12.48,3.23,14.68c1.82,6.24,3.25,9.28,2.75,16.06
		c-0.67,9.16,1.84,20.51,0.86,30.26c-1.71,17.06,13.11,47.9-17.95,45.29c-16.25-1.37-29.04-4.09-45.05-3.33
		c-8.13,0.39-14.03-2.73-21.64-2.82c-9.61-0.11-21.21,4.15-31.28,4.91c-10.92,0.82-22.08-1.29-32.71-1.09
		c-9.92,0.19-17.4,4.04-27.11,4.09c-8.86,0.05-15.62-2.02-24.47-1.24c-7.4,0.65-14.72,3.01-22.37,2.16
		c-3.71-8.83,5.08-10.53,6.61-18.26c0.82-4.14-2.98-7.5-3.43-11.31c-1.26-10.6,0.82-22.39,2.66-32.38
		c0.58-3.12,1.82-7.32,0.73-10.53c-1.07-3.17-5.05-3.51-5.87-5.7c-3.19-8.52,0.63-6.54,2.84-14.3C6.08,104.8,6.99,90.16,10.09,90.19
		z"/>
</g>
</svg>
