<?xml version="1.0" encoding="utf-8"?>
<!-- Generator: Adobe Illustrator 23.0.3, SVG Export Plug-In . SVG Version: 6.00 Build 0)  -->
<svg version="1.0" id="Livello_1" xmlns="http://www.w3.org/2000/svg" xmlns:xlink="http://www.w3.org/1999/xlink" x="0px" y="0px"
	 viewBox="0 0 46.24 85.72" enable-background="new 0 0 46.24 85.72" xml:space="preserve">
<path fill="#8CC63F" d="M45.7,67.39l-2.13-0.9c0.24-1.26,0.38-2.56,0.38-3.9s-0.14-2.63-0.38-3.9l2.13-0.9l-0.53-1.26l1.08-0.45
	l-2.33-5.51l-1.08,0.45l-0.53-1.25l-2.16,0.91c-0.61-0.86-1.28-1.68-2.01-2.43c1.92-2.8,4.99-7.77,4.99-10.97
	c0-3.08,0-33.72,0-33.72c0-1.97-1.59-3.56-3.56-3.56H6.68C4.72,0,3.12,1.59,3.12,3.56c0,0,0,30.64,0,33.72
	c0,3.43,3.23,8.53,5.14,11.23c-0.68,0.72-1.31,1.49-1.87,2.3l-2.46-1.04L3.4,51.04l-1.08-0.45L0,56.1l1.08,0.45L0.55,57.8l2.49,1.05
	c-0.22,1.22-0.36,2.46-0.36,3.74c0,1.28,0.13,2.53,0.36,3.74l-2.49,1.05l0.53,1.26L0,69.1l2.33,5.51l1.08-0.45l0.53,1.26l2.46-1.04
	c1.35,1.93,3.02,3.62,4.94,4.99l-1.02,2.42l1.25,0.53l-0.45,1.08l5.51,2.33l0.45-1.08l1.26,0.53l0.99-2.34c1.3,0.25,2.63,0.4,4,0.4
	c1.24,0,2.45-0.13,3.64-0.34l0.96,2.28l1.26-0.53l0.45,1.08l5.51-2.33l-0.45-1.08l1.25-0.53l-0.93-2.2c2-1.38,3.74-3.1,5.14-5.09
	l2.16,0.91l0.53-1.26l1.08,0.45l2.33-5.51l-1.08-0.45L45.7,67.39z"/>
</svg>
