<?xml version="1.0" encoding="utf-8"?>
<!-- Generator: Adobe Illustrator 23.0.3, SVG Export Plug-In . SVG Version: 6.00 Build 0)  -->
<svg version="1.0" id="Livello_1" xmlns="http://www.w3.org/2000/svg" xmlns:xlink="http://www.w3.org/1999/xlink" x="0px" y="0px"
	 viewBox="0 0 46.24 73.88" enable-background="new 0 0 46.24 73.88" xml:space="preserve">
<path fill="#FF0000" d="M45.1,64.2l1.14-1.24v-2.49l-1.14-1.24h-0.03c-0.27-0.48-0.61-0.8-0.99-0.9v-0.66h-1.36
	c-0.46-0.38-1.24-0.62-1.24-0.62l-3.02-4.9h-0.39v-0.56c0-1.22-1-2.81-2.22-2.82h0.21V0H10.61v48.76h0.21
	c-1.22,0.01-2.22,1.59-2.22,2.82v0.56H8.21l-3.02,4.9c0,0-0.78,0.24-1.24,0.62H2.16v0.66c-0.38,0.11-0.72,0.42-0.99,0.9H1.14
	L0,60.46v2.49l1.14,1.24v0h0.02c0.22,0.4,0.49,0.69,0.8,0.84v1.73c0,0.26-0.1,0.48-0.23,0.54l-0.9,0.39C0.7,67.77,0.6,68,0.6,68.26
	v1.97h0v0.92h0v2.45h3.65h6.7l0.02,0.29l6.23-0.43h0l5.93-0.4l5.93,0.4h0l6.23,0.43l0.02-0.29H42h3.65v-2.45h0v-0.92h0v-1.97
	c0-0.27-0.1-0.49-0.23-0.56l-0.9-0.39c-0.13-0.06-0.23-0.28-0.23-0.54v-1.73c0.3-0.15,0.58-0.44,0.8-0.84L45.1,64.2L45.1,64.2z"/>
</svg>
