<?xml version="1.0" encoding="utf-8"?>
<!-- Generator: Adobe Illustrator 23.0.3, SVG Export Plug-In . SVG Version: 6.00 Build 0)  -->
<svg version="1.0" id="Livello_1" xmlns="http://www.w3.org/2000/svg" xmlns:xlink="http://www.w3.org/1999/xlink" x="0px" y="0px"
	 viewBox="0 0 50 50" enable-background="new 0 0 50 50" xml:space="preserve">
<g>
	<rect opacity="0.44" fill="none" width="50" height="50"/>
	<g>
		<g>
			<path fill="#8CC63F" d="M37.09,33.8h-4.8l4.5-4.5c0.43-0.43,0.43-1.13,0-1.55L23.29,14.25c-0.43-0.43-1.12-0.43-1.55,0
				l-8.53,8.53c-0.43,0.43-0.43,1.12,0,1.55l9.46,9.46h-9.76c-0.57,0-1.02,0.46-1.02,1.02c0,0.56,0.46,1.02,1.02,1.02h24.18
				c0.57,0,1.02-0.46,1.02-1.02C38.12,34.26,37.66,33.8,37.09,33.8z M32.65,26.72l-6.87-1.46l-1.46-6.87L32.65,26.72z M15.54,23.56
				l6.25-6.25l1.94,9.13c0.05,0.22,0.15,0.41,0.3,0.56c0.15,0.15,0.34,0.26,0.56,0.31l9.13,1.94l-4.55,4.55h-3.41L15.54,23.56z"/>
		</g>
	</g>
</g>
</svg>
