<?xml version="1.0" encoding="utf-8"?>
<!-- Generator: Adobe Illustrator 23.0.3, SVG Export Plug-In . SVG Version: 6.00 Build 0)  -->
<svg version="1.0" id="Livello_1" xmlns="http://www.w3.org/2000/svg" xmlns:xlink="http://www.w3.org/1999/xlink" x="0px" y="0px"
	 viewBox="0 0 50 50" enable-background="new 0 0 50 50" xml:space="preserve">
<g>
	<rect opacity="0.44" fill="none" width="50" height="50"/>
	<g>
		<path fill="#3FA9F5" d="M25,12.88c-3.73,0-7.12,1.75-9.34,4.41l-0.91-0.89c-0.18-0.2-0.47-0.27-0.72-0.17
			c-0.26,0.07-0.44,0.3-0.47,0.57l-0.68,4.69c-0.08,0.58,0.59,0.91,0.81,0.8c0.14-0.02,4.99-0.71,4.69-0.67
			c0.27-0.03,0.48-0.21,0.57-0.47c0.09-0.26,0.03-0.54-0.17-0.74l-1.08-1.08c1.69-2.16,4.36-3.55,7.3-3.55
			c5.07,0,9.26,4.13,9.28,9.2c0,0.01,0,0.01,0,0.03c0,0.18-0.01,0.36-0.02,0.54c-0.03,0.45,0.36,0.81,0.81,0.75l1.43-0.21
			c0.34-0.05,0.6-0.33,0.61-0.68c0-0.13,0.01-0.27,0.01-0.4C37.12,18.35,31.68,12.88,25,12.88z"/>
		<path fill="#3FA9F5" d="M36.31,27.58c-0.14,0.02-4.99,0.71-4.69,0.67c-0.27,0.03-0.48,0.21-0.57,0.47
			c-0.09,0.26-0.03,0.54,0.17,0.74l1.14,1.14c-1.68,2.2-4.38,3.64-7.36,3.64c-5.08,0-9.28-4.15-9.28-9.23
			c0-0.09-0.01-0.29,0.02-0.67c0.04-0.46-0.36-0.83-0.81-0.76l-1.43,0.2c-0.34,0.05-0.6,0.33-0.61,0.67
			c-0.02,0.4-0.01,0.71-0.01,0.86c0.16,6.52,5.56,11.82,12.12,11.82c3.78,0,7.19-1.78,9.41-4.49l0.84,0.84
			c0.19,0.21,0.5,0.26,0.72,0.17c0.26-0.07,0.44-0.3,0.47-0.57l0.68-4.69C37.18,27.94,36.77,27.51,36.31,27.58z"/>
	</g>
</g>
</svg>
