<?xml version="1.0" encoding="utf-8"?>
<!-- Generator: Adobe Illustrator 23.0.3, SVG Export Plug-In . SVG Version: 6.00 Build 0)  -->
<svg version="1.0" id="Livello_1" xmlns="http://www.w3.org/2000/svg" xmlns:xlink="http://www.w3.org/1999/xlink" x="0px" y="0px"
	 viewBox="0 0 40 94.74" enable-background="new 0 0 40 94.74" xml:space="preserve">
<path fill="#FF0000" d="M40,20.01c0-3.08-1.82-11.08-1.82-11.08l-1.42-1.01h-2.05V0H5.29h0v7.91H3.24L1.82,8.92
	c0,0-1.82,8-1.82,11.08v23.53h0.93v1.01H0l0,46.55c0,2.01,1.63,3.65,3.65,3.65h32.71c2.01,0,3.65-1.63,3.65-3.65V44.54h-0.89v-1.01
	H40V20.01C40,21.2,40,21.2,40,20.01z M7.1,7.91L7.1,7.91L7.1,7.91L7.1,7.91L7.1,7.91z"/>
<g>
	<path opacity="0.33" fill="#818080" d="M20.16,54.87h-0.32H0v36.22c0,2.01,1.63,3.65,3.65,3.65h16.19h0.32h16.19
		c2.01,0,3.65-1.63,3.65-3.65V54.87H20.16z"/>
	<path fill="#FFFFFF" d="M36.01,84.79v-2.79l2.02-0.4V67.68l-2.02-0.4v-2.79l2.02-0.4v-5.29c0-1.2-0.98-2.18-2.18-2.18h-14.1
		l-0.36,1.83H18.6l-0.36-1.83H4.15c-1.2,0-2.18,0.98-2.18,2.18v5.3l2.02,0.4v2.79l-2.02,0.4V81.6l2.02,0.4v2.79l-2.02,0.4v5.29
		c0,1.2,0.98,2.18,2.18,2.18h14.1l0.37-1.83l2.79,0l0.36,1.83h14.08c1.2,0,2.18-0.98,2.18-2.18v-5.3L36.01,84.79z"/>
	<g opacity="0.15">
		<g>
			<path fill="#E4E4E5" d="M39.07,26.1C39.6,23.55,40,21.2,40,20.01c0-3.08-1.82-11.08-1.82-11.08l-1.42-1.01H33.2V0H32.7v7.91
				h-7.88c0,0,0.39,8.77-4.82,9.09c-5.21-0.32-4.82-9.09-4.82-9.09H7.1V0H6.6v7.91H3.24L1.82,8.92c0,0-1.82,8-1.82,11.08
				c0,1.2,0.4,3.54,0.93,6.09v15.37H0v2.06h19.84h0.32H40v-2.06h-0.93V26.1z M3.67,41.47H1.43v-13c0.73,3.3,1.53,6.48,1.83,7.58
				C3.87,38.27,3.67,41.47,3.67,41.47 M34.71,29.02l-1.02,0.31v2.79l1.02,0.32v6.84c0,1.2-0.98,2.18-2.18,2.18H21.74l-0.33-1.68
				h-2.79l-0.33,1.68H7.48c-1.2,0-2.18-0.98-2.18-2.18v-6.83l1.02-0.31v-2.79l-1.02-0.32v-8c0-1.2,0.98-2.18,2.18-2.18h10.79
				l0.33,1.68h2.79l0.33-1.68h10.8c1.2,0,2.18,0.98,2.18,2.18V29.02z M38.57,41.47h-2.24c0,0-0.2-3.2,0.4-5.42
				c0.3-1.1,1.1-4.27,1.83-7.58V41.47z"/>
		</g>
	</g>
	<path opacity="0.15" fill="#E4E4E5" d="M40,46.36v-1.82H20.29h-0.58H0v1.82h0.93v6.88H0v1.62h19.84h0.32H40v-1.62h-0.92v-6.88H40z
		 M7.92,46.37v6.88h-3.8v-6.88h3.77C7.9,46.36,7.91,46.37,7.92,46.37 M1.43,46.36h2.18v6.88H1.43V46.36z M8.43,53.25v-6.86
		c4.05,0.23,7.76,2.98,7.76,6.86H8.43z M35.85,46.36v6.88h-3.77v-6.88c0.01,0,0.02,0,0.03,0H35.85z M31.57,46.39v6.86h-7.76
		C23.81,49.37,27.52,46.61,31.57,46.39 M38.57,53.25h-2.21v-6.88h2.21V53.25z"/>
	<g opacity="0.4">
		<g>
			<path d="M33.69,32.13v-2.79l1.01-0.31v-7.99c0-1.2-0.98-2.18-2.18-2.18h-10.8l-0.34,1.68H18.6l-0.33-1.68H7.48
				c-1.2,0-2.18,0.98-2.18,2.18v8l1.02,0.32l0,2.79l-1.01,0.31v6.83c0,1.2,0.98,2.18,2.18,2.18h10.8l0.34-1.68l2.79,0l0.33,1.68
				h10.79c1.2,0,2.18-0.98,2.18-2.18v-6.84L33.69,32.13z"/>
		</g>
	</g>
	<g opacity="0.33">
		<g>
			<path fill="#818080" d="M8.43,53.25h7.76c0-3.88-3.71-6.63-7.76-6.86V53.25z"/>
		</g>
	</g>
	<g opacity="0.33">
		<g>
			<path fill="#818080" d="M1.43,41.47h2.24c0,0,0.2-3.2-0.4-5.42c-0.3-1.1-1.1-4.27-1.83-7.58V41.47z"/>
		</g>
	</g>
	<g opacity="0.33">
		<g>
			<rect x="1.43" y="46.36" fill="#818080" width="2.18" height="6.88"/>
		</g>
	</g>
	<g opacity="0.33">
		<g>
			<path fill="#818080" d="M4.12,53.25h3.8v-6.88c-0.01,0-0.02,0-0.03,0H4.12V53.25z"/>
		</g>
	</g>
	<g opacity="0.33">
		<g>
			<rect x="36.36" y="46.36" fill="#818080" width="2.21" height="6.88"/>
		</g>
	</g>
	<g opacity="0.33">
		<g>
			<path fill="#818080" d="M31.57,53.25v-6.86c-4.05,0.23-7.76,2.98-7.76,6.86H31.57z"/>
		</g>
	</g>
	<g opacity="0.33">
		<g>
			<path fill="#818080" d="M32.08,53.25h3.77v-6.88h-3.74c-0.01,0-0.02,0-0.03,0V53.25z"/>
		</g>
	</g>
	<g opacity="0.33">
		<g>
			<path fill="#818080" d="M39.08,26.1v15.37H40V20.01C40,21.2,39.6,23.55,39.08,26.1"/>
		</g>
	</g>
	<g opacity="0.33">
		<g>
			<path fill="#818080" d="M0,41.47h0.93V26.1C0.4,23.55,0,21.2,0,20.01V41.47z"/>
		</g>
	</g>
	<g opacity="0.33">
		<g>
			<path fill="#818080" d="M38.57,41.47v-13c-0.73,3.3-1.53,6.48-1.83,7.58c-0.61,2.23-0.4,5.42-0.4,5.42H38.57z"/>
		</g>
	</g>
	<g opacity="0.33">
		<g>
			<rect x="39.08" y="46.36" fill="#818080" width="0.92" height="6.88"/>
		</g>
	</g>
	<rect x="0" y="46.37" opacity="0.33" fill="#818080" width="0.93" height="6.88"/>
	<g opacity="0.4">
		<g>
			<rect x="0.93" y="43.53" fill="#4D4D4D" width="38.19" height="1.01"/>
		</g>
	</g>
	<path opacity="0.33" fill="#818080" d="M15.18,7.91c0,0-0.39,8.77,4.82,9.09c5.21-0.32,4.82-9.09,4.82-9.09h7.88V0H7.1v7.91H15.18z
		"/>
	<g opacity="0.4">
		<g>
			<defs>
				<rect id="SVGID_1_" x="5.29" width="1.3" height="7.91"/>
			</defs>
			<clipPath id="SVGID_2_">
				<use xlink:href="#SVGID_1_"  overflow="visible"/>
			</clipPath>
			<rect x="5.29" clip-path="url(#SVGID_2_)" fill="#4D4D4D" width="1.3" height="7.91"/>
		</g>
	</g>
	<g opacity="0.4">
		<g>
			<defs>
				<rect id="SVGID_3_" x="33.2" width="1.5" height="7.91"/>
			</defs>
			<clipPath id="SVGID_4_">
				<use xlink:href="#SVGID_3_"  overflow="visible"/>
			</clipPath>
			<rect x="33.2" clip-path="url(#SVGID_4_)" fill="#4D4D4D" width="1.5" height="7.91"/>
		</g>
	</g>
	<g opacity="0.2">
		<g>
			<path fill="#4D4D4D" d="M25.88,5.43H14.05C12.28,3.62,10.7,1.81,9.3,0H7.1v7.91H32.7V0h-2C29.28,1.81,27.67,3.62,25.88,5.43"/>
		</g>
	</g>
</g>
</svg>
