<?xml version="1.0" encoding="utf-8"?>
<!-- Generator: Adobe Illustrator 23.0.3, SVG Export Plug-In . SVG Version: 6.00 Build 0)  -->
<svg version="1.0" id="Livello_1" xmlns="http://www.w3.org/2000/svg" xmlns:xlink="http://www.w3.org/1999/xlink" x="0px" y="0px"
	 viewBox="0 0 46.24 85.72" enable-background="new 0 0 46.24 85.72" xml:space="preserve">
<path fill="#FF0000" d="M45.7,67.39l-2.13-0.9c0.24-1.26,0.38-2.56,0.38-3.9s-0.14-2.63-0.38-3.9l2.13-0.9l-0.53-1.26l1.08-0.45
	l-2.33-5.51l-1.08,0.45l-0.53-1.25l-2.16,0.91c-0.61-0.86-1.28-1.68-2.01-2.43c1.92-2.8,4.99-7.77,4.99-10.97
	c0-3.08,0-33.72,0-33.72c0-1.97-1.59-3.56-3.56-3.56H6.68C4.72,0,3.12,1.59,3.12,3.56c0,0,0,30.64,0,33.72
	c0,3.43,3.23,8.53,5.14,11.23c-0.68,0.72-1.31,1.49-1.87,2.3l-2.46-1.04L3.4,51.04l-1.08-0.45L0,56.1l1.08,0.45L0.55,57.8l2.49,1.05
	c-0.22,1.22-0.36,2.46-0.36,3.74c0,1.28,0.13,2.53,0.36,3.74l-2.49,1.05l0.53,1.26L0,69.1l2.33,5.51l1.08-0.45l0.53,1.26l2.46-1.04
	c1.35,1.93,3.02,3.62,4.94,4.99l-1.02,2.42l1.25,0.53l-0.45,1.08l5.51,2.33l0.45-1.08l1.26,0.53l0.99-2.34c1.3,0.25,2.63,0.4,4,0.4
	c1.24,0,2.45-0.13,3.64-0.34l0.96,2.28l1.26-0.53l0.45,1.08l5.51-2.33l-0.45-1.08l1.25-0.53l-0.93-2.2c2-1.38,3.74-3.1,5.14-5.09
	l2.16,0.91l0.53-1.26l1.08,0.45l2.33-5.51l-1.08-0.45L45.7,67.39z"/>
<g>
	<path opacity="0.33" fill="#818080" d="M39.56,0H6.68C4.72,0,3.12,1.59,3.12,3.56c0,0,0,30.64,0,33.72c0,3.43,3.23,8.53,5.14,11.23
		c0.93-0.99,1.95-1.89,3.05-2.68l-1.01-2.43l1.25-0.53l-0.45-1.08l5.51-2.33l0.45,1.08l1.26-0.53l0.95,2.35
		c1.31-0.26,2.66-0.4,4.04-0.4c1.24,0,2.44,0.13,3.62,0.34l0.98-2.28l1.26,0.53l0.45-1.08l5.51,2.33l-0.45,1.08l1.25,0.53l-0.95,2.2
		c1.13,0.78,2.19,1.67,3.14,2.66c1.92-2.8,4.99-7.77,4.99-10.97c0-3.08,0-33.72,0-33.72C43.12,1.59,41.53,0,39.56,0z"/>
	<path fill="#FFFFFF" d="M39.13,30.04l0-2.79c0.67-0.14,1.35-0.27,2.02-0.4V12.93c-0.67-0.13-1.35-0.26-2.02-0.4l0-2.79
		c0.67-0.14,1.35-0.27,2.02-0.4V4.04c0-1.2-0.98-2.18-2.18-2.18h-14.1c-0.12,0.61-0.24,1.22-0.37,1.83l-2.79,0
		c-0.13-0.61-0.24-1.22-0.36-1.83H7.27c-1.2,0-2.18,0.98-2.18,2.18v5.3c0.67,0.13,1.35,0.26,2.02,0.4l0,2.79
		c-0.67,0.14-1.35,0.27-2.02,0.4v13.92c0.67,0.13,1.35,0.26,2.02,0.4l0,2.79c-0.67,0.14-1.35,0.27-2.02,0.4v5.29
		c0,1.2,0.98,2.18,2.18,2.18h14.1c0.12-0.61,0.24-1.22,0.37-1.83l2.79,0c0.13,0.61,0.24,1.22,0.36,1.83h14.08
		c1.2,0,2.18-0.98,2.18-2.18v-5.3C40.48,30.31,39.81,30.18,39.13,30.04z"/>
	
		<ellipse transform="matrix(0.3827 -0.9239 0.9239 0.3827 -43.4394 60.1848)" opacity="0.15" fill="#CCCCCC" cx="23.32" cy="62.6" rx="14.03" ry="14.03"/>
	<g opacity="0.15">
		<path fill="#CCCCCC" d="M0.55,57.8l2.49,1.05c0.54-2.95,1.7-5.67,3.35-8.04l-2.46-1.04L3.4,51.04l-1.08-0.45L0,56.1l1.08,0.45
			L0.55,57.8z"/>
		<path fill="#CCCCCC" d="M43.57,58.7l2.13-0.9l-0.53-1.26l1.08-0.45l-2.33-5.51l-1.08,0.45l-0.53-1.25l-2.16,0.91
			C41.82,53.05,43.01,55.76,43.57,58.7z"/>
		<path fill="#CCCCCC" d="M45.7,67.39l-2.13-0.9c-0.56,2.94-1.75,5.65-3.42,8.01l2.16,0.91l0.53-1.26l1.08,0.45l2.33-5.51
			l-1.08-0.45L45.7,67.39z"/>
		<path fill="#CCCCCC" d="M35.01,79.59c-2.37,1.64-5.11,2.78-8.06,3.3l0.96,2.28l1.26-0.53l0.45,1.08l5.51-2.33l-0.45-1.08
			l1.25-0.53L35.01,79.59z"/>
		<path fill="#CCCCCC" d="M11.33,79.37l-1.02,2.42l1.25,0.53l-0.45,1.08l5.51,2.33l0.45-1.08l1.26,0.53l0.99-2.34
			C16.38,82.26,13.67,81.05,11.33,79.37z"/>
		<path fill="#CCCCCC" d="M3.04,66.34l-2.49,1.05l0.53,1.26L0,69.1l2.33,5.51l1.08-0.45l0.53,1.26l2.46-1.04
			C4.74,72.01,3.58,69.29,3.04,66.34z"/>
	</g>
	<path opacity="0.35" fill="#818080" d="M23.32,41.97c-11.4,0-20.63,9.24-20.63,20.63c0,11.4,9.24,20.63,20.63,20.63
		s20.63-9.24,20.63-20.63C43.95,51.2,34.71,41.97,23.32,41.97z M23.32,76.63c-7.75,0-14.03-6.28-14.03-14.03
		c0-7.75,6.28-14.03,14.03-14.03c7.75,0,14.03,6.28,14.03,14.03C37.35,70.35,31.07,76.63,23.32,76.63z"/>
	<path opacity="0.15" fill="#CCCCCC" d="M10.3,43.41l1.25-0.53l-0.45-1.08l5.51-2.33l0.45,1.08l1.26-0.53l0.99,2.34
		c-2.94,0.58-5.64,1.79-7.99,3.47L10.3,43.41z M35.01,45.61l0.93-2.2l-1.25-0.53l0.45-1.08l-5.51-2.33l-0.45,1.08l-1.26-0.53
		l-0.96,2.28C29.9,42.83,32.64,43.97,35.01,45.61z"/>
</g>
</svg>
