<?xml version="1.0" encoding="utf-8"?>
<!-- Generator: Adobe Illustrator 23.0.3, SVG Export Plug-In . SVG Version: 6.00 Build 0)  -->
<svg version="1.0" id="Livello_1" xmlns="http://www.w3.org/2000/svg" xmlns:xlink="http://www.w3.org/1999/xlink" x="0px" y="0px"
	 viewBox="0 0 101 50" enable-background="new 0 0 101 50" xml:space="preserve">
<g>
	<rect x="0" y="0" opacity="0.44" fill="none" width="101" height="50"/>
	<g>
		<path fill="#C1272D" d="M53.65,37.86c0.96,1.5,3.17,1.04,4.67,0.87v-2.9h-0.71c-0.19-0.01-0.44-0.08-0.44-0.36V21.26h1.05v-3.03
			h-1.05V15h-3.84v3.23h-0.9v3.03h0.9v15.26C53.33,36.85,53.44,37.55,53.65,37.86"/>
		<path fill="#C1272D" d="M24.45,12.95h3.98v5.58c0.8-0.63,2.24-0.64,3.11-0.17c0.83,0.48,1.45,1.36,1.45,2.36v16.07
			c0,0.51-0.38,1.26-0.89,1.58c-0.86,0.58-2.17,0.61-3.05,0.05c-0.15-0.1-0.48-0.32-0.62-0.32v0.64h-3.98V12.95z M28.44,35.8
			c0.05,0.51,0.99,0.54,0.99,0V21.31c0-0.51-0.99-0.42-0.99,0V35.8z"/>
		<path fill="#C1272D" d="M76.87,19.42c-0.2-0.42-0.53-0.7-0.93-0.93c-0.78-0.48-2.36-0.39-2.99,0.06c-0.22,0.17-0.4,0.29-0.65,0.46
			v-0.6h-3.82v20.36h3.82v-17.5c-0.01-0.51,0.98-0.53,1,0v17.5h3.85V27.28v-6.41C77.15,20.58,77.1,19.85,76.87,19.42"/>
		<path fill="#C1272D" d="M67.37,36.34c0,3.35-8.33,3.39-8.32,0l0-15.67c0-3.52,8.33-3.35,8.33,0V36.34z M63.93,21.03
			c-0.01-0.38-1.04-0.37-1.05,0v14.92c0.03,0.51,1.09,0.51,1.05,0V21.03z"/>
		<path fill="#C1272D" d="M37.91,18.77c0,0,0.64-0.71,1.98-0.71c1.34,0,2.5,1,2.52,2.04c0.02,0.98,0,8.81,0,8.81l-3.52,0v-7.92
			c0-0.39-0.99-0.49-0.99,0v17.73h-3.82V18.29l3.82-0.02L37.91,18.77z"/>
		<path fill="#C1272D" d="M47.29,21.08c0-0.25,0.9-0.25,0.9,0v5.06h-0.9V21.08z M51.83,20.83c0-0.86-0.38-2.75-4.2-2.72
			c-3.8,0.02-4.17,1.82-4.18,2.67l0,14.91c0.01,1.17,0.78,2.51,2.02,2.95c1.59,0.37,3.24,0.41,4.79-0.17
			c0.9-0.51,1.52-1.48,1.57-2.55V30.3c-1.49-0.02-2.07-0.02-3.53,0l0.02,5.76c0,0.4-0.96,0.36-0.97,0v-7.12c1.69-0.06,3.24,0,4.49,0
			V20.83z"/>
	</g>
</g>
</svg>
