<?xml version="1.0" encoding="utf-8"?>
<!-- Generator: Adobe Illustrator 23.0.3, SVG Export Plug-In . SVG Version: 6.00 Build 0)  -->
<svg version="1.0" id="Livello_1" xmlns="http://www.w3.org/2000/svg" xmlns:xlink="http://www.w3.org/1999/xlink" x="0px" y="0px"
	 viewBox="0 0 1088.24 523.96" enable-background="new 0 0 1088.24 523.96" xml:space="preserve">
<g>
	<line fill="none" stroke="#FFFFFF" stroke-miterlimit="10" x1="100.84" y1="0" x2="100.84" y2="523.96"/>
	<line fill="none" stroke="#FFFFFF" stroke-miterlimit="10" x1="152.84" y1="0" x2="152.84" y2="523.96"/>
	<line fill="none" stroke="#FFFFFF" stroke-miterlimit="10" x1="204.84" y1="0" x2="204.84" y2="523.96"/>
	<line fill="none" stroke="#FFFFFF" stroke-miterlimit="10" x1="256.84" y1="0" x2="256.84" y2="523.96"/>
	<line fill="none" stroke="#FFFFFF" stroke-miterlimit="10" x1="308.84" y1="0" x2="308.84" y2="523.96"/>
	<line fill="none" stroke="#FFFFFF" stroke-miterlimit="10" x1="360.84" y1="0" x2="360.84" y2="523.96"/>
	<line fill="none" stroke="#FFFFFF" stroke-miterlimit="10" x1="412.84" y1="0" x2="412.84" y2="523.96"/>
	<line fill="none" stroke="#FFFFFF" stroke-miterlimit="10" x1="464.84" y1="0" x2="464.84" y2="523.96"/>
	<line fill="none" stroke="#FFFFFF" stroke-miterlimit="10" x1="516.84" y1="0" x2="516.84" y2="523.96"/>
	<line fill="none" stroke="#FFFFFF" stroke-miterlimit="10" x1="568.84" y1="0" x2="568.84" y2="523.96"/>
	<line fill="none" stroke="#FFFFFF" stroke-miterlimit="10" x1="620.84" y1="0" x2="620.84" y2="523.96"/>
	<line fill="none" stroke="#FFFFFF" stroke-miterlimit="10" x1="672.84" y1="0" x2="672.84" y2="523.96"/>
	<line fill="none" stroke="#FFFFFF" stroke-miterlimit="10" x1="724.84" y1="0" x2="724.84" y2="523.96"/>
	<line fill="none" stroke="#FFFFFF" stroke-miterlimit="10" x1="932.84" y1="0" x2="932.84" y2="523.96"/>
	<line fill="none" stroke="#FFFFFF" stroke-miterlimit="10" x1="776.84" y1="0" x2="776.84" y2="523.96"/>
	<line fill="none" stroke="#FFFFFF" stroke-miterlimit="10" x1="828.84" y1="0" x2="828.84" y2="523.96"/>
	<line fill="none" stroke="#FFFFFF" stroke-miterlimit="10" x1="880.84" y1="0" x2="880.84" y2="523.96"/>
	<line fill="none" stroke="#FFFFFF" stroke-miterlimit="10" x1="1036.84" y1="0" x2="1036.84" y2="523.96"/>
	<line fill="none" stroke="#FFFFFF" stroke-miterlimit="10" x1="984.84" y1="0" x2="984.84" y2="523.96"/>
	<line fill="none" stroke="#FFFFFF" stroke-miterlimit="10" x1="48.84" y1="0" x2="48.84" y2="523.96"/>
	<g>
		<rect x="26.8" y="197.01" fill="#CCCCCC" width="1032.04" height="14"/>
		<g>
			<g>
				<rect x="26.8" y="198.85" fill="#CCCCCC" width="1032.04" height="2.72"/>
				<rect x="26.8" y="201.56" fill="#999999" width="1032.04" height="0.44"/>
				<rect x="26.8" y="198.41" fill="#FFFFFF" width="1032.04" height="0.44"/>
			</g>
			<g>
				<rect x="26.8" y="206.46" fill="#CCCCCC" width="1032.04" height="2.72"/>
				<rect x="26.8" y="209.18" fill="#999999" width="1032.04" height="0.44"/>
				<rect x="26.8" y="206.03" fill="#FFFFFF" width="1032.04" height="0.44"/>
			</g>
		</g>
	</g>
	<rect x="7.52" y="307.02" fill="#CCCCCC" width="1080.72" height="3.63"/>
	<g>
		
			<rect x="979.99" y="441.18" transform="matrix(-1.836970e-16 1 -1 -1.836970e-16 1503.9446 -607.5765)" fill="#CCCCCC" width="151.55" height="14"/>
		<g>
			<g>
				
					<rect x="983.79" y="446.83" transform="matrix(-1.836970e-16 1 -1 -1.836970e-16 1507.7523 -611.3843)" fill="#CCCCCC" width="151.55" height="2.72"/>
				
					<rect x="982.22" y="447.97" transform="matrix(-1.836970e-16 1 -1 -1.836970e-16 1506.1764 -609.8084)" fill="#999999" width="151.55" height="0.44"/>
				
					<rect x="985.37" y="447.97" transform="matrix(-1.836970e-16 1 -1 -1.836970e-16 1509.3282 -612.9603)" fill="#FFFFFF" width="151.55" height="0.44"/>
			</g>
			<g>
				
					<rect x="976.18" y="446.83" transform="matrix(-1.836970e-16 1 -1 -1.836970e-16 1500.1368 -603.7689)" fill="#CCCCCC" width="151.55" height="2.72"/>
				
					<rect x="974.6" y="447.97" transform="matrix(-1.836970e-16 1 -1 -1.836970e-16 1498.5609 -602.1929)" fill="#999999" width="151.55" height="0.44"/>
				
					<rect x="977.75" y="447.97" transform="matrix(-1.836970e-16 1 -1 -1.836970e-16 1501.7128 -605.3448)" fill="#FFFFFF" width="151.55" height="0.44"/>
			</g>
		</g>
	</g>
	<g>
		<line fill="none" stroke="#E6E6E6" stroke-miterlimit="10" x1="1045.17" y1="384.93" x2="41.82" y2="384.93"/>
		<line fill="none" stroke="#E6E6E6" stroke-miterlimit="10" x1="1045.17" y1="498.91" x2="41.82" y2="498.91"/>
		<line fill="none" stroke="#E6E6E6" stroke-miterlimit="10" x1="1045.17" y1="460.91" x2="41.82" y2="460.91"/>
		<line fill="none" stroke="#E6E6E6" stroke-miterlimit="10" x1="1045.17" y1="410.26" x2="41.82" y2="410.26"/>
		<line fill="none" stroke="#E6E6E6" stroke-miterlimit="10" x1="1045.17" y1="486.24" x2="41.82" y2="486.24"/>
		<line fill="none" stroke="#E6E6E6" stroke-miterlimit="10" x1="1045.17" y1="435.59" x2="41.82" y2="435.59"/>
		<line fill="none" stroke="#E6E6E6" stroke-miterlimit="10" x1="1045.17" y1="397.59" x2="41.82" y2="397.59"/>
		<line fill="none" stroke="#E6E6E6" stroke-miterlimit="10" x1="1045.17" y1="473.58" x2="41.82" y2="473.58"/>
		<line fill="none" stroke="#E6E6E6" stroke-miterlimit="10" x1="1045.17" y1="422.92" x2="41.82" y2="422.92"/>
		<line fill="none" stroke="#E6E6E6" stroke-miterlimit="10" x1="1045.17" y1="448.25" x2="41.82" y2="448.25"/>
		<line fill="none" stroke="#E6E6E6" stroke-miterlimit="10" x1="1045.17" y1="511.57" x2="41.82" y2="511.57"/>
	</g>
	<g>
		
			<rect x="-48.98" y="441.18" transform="matrix(-1.836970e-16 1 -1 -1.836970e-16 474.9838 421.3843)" fill="#CCCCCC" width="151.55" height="14"/>
		<g>
			<g>
				
					<rect x="-45.17" y="446.83" transform="matrix(-1.836970e-16 1 -1 -1.836970e-16 478.7916 417.5765)" fill="#CCCCCC" width="151.55" height="2.72"/>
				
					<rect x="-46.74" y="447.97" transform="matrix(-1.836970e-16 1 -1 -1.836970e-16 477.2156 419.1524)" fill="#999999" width="151.55" height="0.44"/>
				
					<rect x="-43.59" y="447.97" transform="matrix(-1.836970e-16 1 -1 -1.836970e-16 480.3675 416.0006)" fill="#FFFFFF" width="151.55" height="0.44"/>
			</g>
			<g>
				
					<rect x="-52.78" y="446.83" transform="matrix(-1.836970e-16 1 -1 -1.836970e-16 471.1761 425.192)" fill="#CCCCCC" width="151.55" height="2.72"/>
				
					<rect x="-54.36" y="447.97" transform="matrix(-1.836970e-16 1 -1 -1.836970e-16 469.6001 426.7679)" fill="#999999" width="151.55" height="0.44"/>
				
					<rect x="-51.21" y="447.97" transform="matrix(-1.836970e-16 1 -1 -1.836970e-16 472.752 423.616)" fill="#FFFFFF" width="151.55" height="0.44"/>
			</g>
		</g>
	</g>
	<line fill="none" stroke="#999999" stroke-width="2.1213" stroke-miterlimit="10" x1="12.31" y1="384.93" x2="0" y2="384.93"/>
	<line fill="none" stroke="#999999" stroke-width="0.7071" stroke-miterlimit="10" x1="12.31" y1="498.9" x2="0" y2="498.9"/>
	<line fill="none" stroke="#999999" stroke-width="0.7071" stroke-miterlimit="10" x1="12.31" y1="460.91" x2="0" y2="460.91"/>
	<line fill="none" stroke="#999999" stroke-width="0.7071" stroke-miterlimit="10" x1="12.31" y1="410.26" x2="0" y2="410.26"/>
	<line fill="none" stroke="#999999" stroke-width="0.7071" stroke-miterlimit="10" x1="12.31" y1="486.24" x2="0" y2="486.24"/>
	<line fill="none" stroke="#999999" stroke-width="0.7071" stroke-miterlimit="10" x1="12.31" y1="435.59" x2="0" y2="435.59"/>
	<line fill="none" stroke="#999999" stroke-width="0.7071" stroke-miterlimit="10" x1="12.31" y1="397.59" x2="0" y2="397.59"/>
	<line fill="none" stroke="#999999" stroke-width="0.7071" stroke-miterlimit="10" x1="12.31" y1="473.58" x2="0" y2="473.58"/>
	<line fill="none" stroke="#999999" stroke-width="0.7071" stroke-miterlimit="10" x1="12.31" y1="422.92" x2="0" y2="422.92"/>
	<line fill="none" stroke="#999999" stroke-width="2.1213" stroke-miterlimit="10" x1="12.31" y1="448.25" x2="0" y2="448.25"/>
	<line fill="none" stroke="#999999" stroke-width="2.1213" stroke-miterlimit="10" x1="12.31" y1="511.57" x2="0" y2="511.57"/>
	<g>
		
			<line fill="none" stroke="#999999" stroke-width="2.1213" stroke-miterlimit="10" x1="1084.14" y1="384.93" x2="1071.83" y2="384.93"/>
		
			<line fill="none" stroke="#999999" stroke-width="0.7071" stroke-miterlimit="10" x1="1084.14" y1="498.9" x2="1071.83" y2="498.9"/>
		
			<line fill="none" stroke="#999999" stroke-width="0.7071" stroke-miterlimit="10" x1="1084.14" y1="460.91" x2="1071.83" y2="460.91"/>
		
			<line fill="none" stroke="#999999" stroke-width="0.7071" stroke-miterlimit="10" x1="1084.14" y1="410.26" x2="1071.83" y2="410.26"/>
		
			<line fill="none" stroke="#999999" stroke-width="0.7071" stroke-miterlimit="10" x1="1084.14" y1="486.24" x2="1071.83" y2="486.24"/>
		
			<line fill="none" stroke="#999999" stroke-width="0.7071" stroke-miterlimit="10" x1="1084.14" y1="435.59" x2="1071.83" y2="435.59"/>
		
			<line fill="none" stroke="#999999" stroke-width="0.7071" stroke-miterlimit="10" x1="1084.14" y1="397.59" x2="1071.83" y2="397.59"/>
		
			<line fill="none" stroke="#999999" stroke-width="0.7071" stroke-miterlimit="10" x1="1084.14" y1="473.58" x2="1071.83" y2="473.58"/>
		
			<line fill="none" stroke="#999999" stroke-width="0.7071" stroke-miterlimit="10" x1="1084.14" y1="422.92" x2="1071.83" y2="422.92"/>
		
			<line fill="none" stroke="#999999" stroke-width="2.1213" stroke-miterlimit="10" x1="1084.14" y1="448.25" x2="1071.83" y2="448.25"/>
		
			<line fill="none" stroke="#999999" stroke-width="2.1213" stroke-miterlimit="10" x1="1084.14" y1="511.57" x2="1071.83" y2="511.57"/>
	</g>
	<g>
		
			<rect x="979.99" y="224.35" transform="matrix(-1.836970e-16 1 -1 -1.836970e-16 1287.1057 -824.4154)" fill="#CCCCCC" width="151.55" height="14"/>
		<g>
			<g>
				
					<rect x="983.79" y="229.99" transform="matrix(-1.836970e-16 1 -1 -1.836970e-16 1290.9135 -828.2232)" fill="#CCCCCC" width="151.55" height="2.72"/>
				
					<rect x="985.37" y="231.13" transform="matrix(-1.836970e-16 1 -1 -1.836970e-16 1292.4894 -829.7991)" fill="#FFFFFF" width="151.55" height="0.44"/>
			</g>
			<g>
				
					<rect x="976.18" y="229.99" transform="matrix(-1.836970e-16 1 -1 -1.836970e-16 1283.298 -820.6077)" fill="#CCCCCC" width="151.55" height="2.72"/>
				
					<rect x="974.6" y="231.13" transform="matrix(-1.836970e-16 1 -1 -1.836970e-16 1281.722 -819.0318)" fill="#999999" width="151.55" height="0.44"/>
			</g>
		</g>
	</g>
	<g>
		
			<rect x="-48.98" y="224.35" transform="matrix(-1.836970e-16 1 -1 -1.836970e-16 258.1449 204.5454)" fill="#CCCCCC" width="151.55" height="14"/>
		<g>
			<g>
				
					<rect x="-45.17" y="229.99" transform="matrix(-1.836970e-16 1 -1 -1.836970e-16 261.9527 200.7376)" fill="#CCCCCC" width="151.55" height="2.72"/>
				
					<rect x="-43.59" y="231.13" transform="matrix(-1.836970e-16 1 -1 -1.836970e-16 263.5286 199.1617)" fill="#FFFFFF" width="151.55" height="0.44"/>
			</g>
			<g>
				
					<rect x="-52.78" y="229.99" transform="matrix(-1.836970e-16 1 -1 -1.836970e-16 254.3372 208.3531)" fill="#CCCCCC" width="151.55" height="2.72"/>
				
					<rect x="-54.36" y="231.13" transform="matrix(-1.836970e-16 1 -1 -1.836970e-16 252.7612 209.929)" fill="#999999" width="151.55" height="0.44"/>
			</g>
		</g>
	</g>
</g>
</svg>
