<?xml version="1.0" encoding="utf-8"?>
<!-- Generator: Adobe Illustrator 23.0.3, SVG Export Plug-In . SVG Version: 6.00 Build 0)  -->
<svg version="1.0" id="Livello_1" xmlns="http://www.w3.org/2000/svg" xmlns:xlink="http://www.w3.org/1999/xlink" x="0px" y="0px"
	 viewBox="0 0 101 50" enable-background="new 0 0 101 50" xml:space="preserve">
<g>
	
		<rect x="0" y="0" transform="matrix(-1 -2.222412e-11 2.222412e-11 -1 101 50)" opacity="0.44" fill="none" width="101" height="50"/>
	<g>
		<g>
			<path fill="#3FA9F5" d="M35.98,23.92l1.6,0.68c0.35-1.9,1.09-3.65,2.16-5.17l-1.58-0.67l-0.34,0.81l-0.69-0.29l-1.5,3.55
				l0.69,0.29L35.98,23.92z"/>
			<path fill="#3FA9F5" d="M63.65,24.49l1.37-0.58l-0.34-0.81l0.69-0.29l-1.5-3.55l-0.69,0.29l-0.34-0.81l-1.39,0.59
				C62.53,20.86,63.29,22.6,63.65,24.49z"/>
			<path fill="#3FA9F5" d="M65.02,30.08l-1.37-0.58c-0.36,1.89-1.13,3.64-2.2,5.15l1.39,0.59l0.34-0.81l0.69,0.29l1.5-3.55
				l-0.69-0.29L65.02,30.08z"/>
			<path fill="#3FA9F5" d="M58.15,37.93c-1.53,1.05-3.29,1.79-5.18,2.12l0.62,1.47l0.81-0.34l0.29,0.69l3.55-1.5l-0.29-0.69
				l0.81-0.34L58.15,37.93z"/>
			<path fill="#3FA9F5" d="M42.91,37.79l-0.66,1.56l0.81,0.34l-0.29,0.69l3.55,1.5l0.29-0.69l0.81,0.34l0.63-1.5
				C46.16,39.65,44.42,38.87,42.91,37.79z"/>
			<path fill="#3FA9F5" d="M37.58,29.41l-1.6,0.68l0.34,0.81l-0.69,0.29l1.5,3.55l0.69-0.29l0.34,0.81l1.58-0.67
				C38.67,33.06,37.93,31.3,37.58,29.41z"/>
		</g>
		<path fill="#3FA9F5" d="M50.63,13.73c-7.33,0-13.27,5.94-13.27,13.27c0,7.33,5.94,13.27,13.27,13.27
			c7.33,0,13.27-5.94,13.27-13.27C63.9,19.67,57.96,13.73,50.63,13.73z M50.63,36.03c-4.99,0-9.03-4.04-9.03-9.03
			c0-4.99,4.04-9.03,9.03-9.03c4.99,0,9.03,4.04,9.03,9.03C59.65,31.99,55.61,36.03,50.63,36.03z"/>
		<path fill="#3FA9F5" d="M42.25,14.65l0.81-0.34l-0.29-0.69l3.55-1.5l0.29,0.69l0.81-0.34l0.63,1.5c-1.89,0.37-3.63,1.15-5.14,2.23
			L42.25,14.65z M58.15,16.07l0.6-1.42l-0.81-0.34l0.29-0.69l-3.55-1.5l-0.29,0.69l-0.81-0.34l-0.62,1.47
			C54.86,14.28,56.62,15.02,58.15,16.07z"/>
	</g>
</g>
</svg>
