<?xml version="1.0" encoding="utf-8"?>
<!-- Generator: Adobe Illustrator 23.0.3, SVG Export Plug-In . SVG Version: 6.00 Build 0)  -->
<svg version="1.0" id="Livello_1" xmlns="http://www.w3.org/2000/svg" xmlns:xlink="http://www.w3.org/1999/xlink" x="0px" y="0px"
	 viewBox="0 0 101 50" enable-background="new 0 0 101 50" xml:space="preserve">
<g>
	
		<rect x="0.26" y="0.68" transform="matrix(-1 -2.222412e-11 2.222412e-11 -1 101.5167 51.3566)" opacity="0.44" fill="none" width="101" height="50"/>
	<g>
		<g>
			<path fill="#B3B3B3" d="M36.24,24.59l1.6,0.68c0.35-1.9,1.09-3.65,2.16-5.17l-1.58-0.67l-0.34,0.81l-0.69-0.29l-1.5,3.55
				l0.69,0.29L36.24,24.59z"/>
			<path fill="#B3B3B3" d="M63.91,25.17l1.37-0.58l-0.34-0.81l0.69-0.29l-1.5-3.55l-0.69,0.29l-0.34-0.81l-1.39,0.59
				C62.79,21.53,63.55,23.28,63.91,25.17z"/>
			<path fill="#B3B3B3" d="M65.28,30.76l-1.37-0.58c-0.36,1.89-1.13,3.64-2.2,5.15l1.39,0.59l0.34-0.81l0.69,0.29l1.5-3.55
				l-0.69-0.29L65.28,30.76z"/>
			<path fill="#B3B3B3" d="M58.41,38.61c-1.53,1.05-3.29,1.79-5.18,2.12l0.62,1.47l0.81-0.34l0.29,0.69l3.55-1.5l-0.29-0.69
				L59,40.03L58.41,38.61z"/>
			<path fill="#B3B3B3" d="M43.17,38.47l-0.66,1.56l0.81,0.34l-0.29,0.69l3.55,1.5l0.29-0.69l0.81,0.34l0.63-1.5
				C46.42,40.33,44.68,39.55,43.17,38.47z"/>
			<path fill="#B3B3B3" d="M37.84,30.09l-1.6,0.68l0.34,0.81l-0.69,0.29l1.5,3.55l0.69-0.29l0.34,0.81l1.58-0.67
				C38.93,33.73,38.19,31.98,37.84,30.09z"/>
		</g>
		<path fill="#B3B3B3" d="M50.88,14.4c-7.33,0-13.27,5.94-13.27,13.27c0,7.33,5.94,13.27,13.27,13.27c7.33,0,13.27-5.94,13.27-13.27
			C64.16,20.35,58.21,14.4,50.88,14.4z M50.88,36.7c-4.99,0-9.03-4.04-9.03-9.03c0-4.99,4.04-9.03,9.03-9.03
			c4.99,0,9.03,4.04,9.03,9.03C59.91,32.66,55.87,36.7,50.88,36.7z"/>
		<path fill="#B3B3B3" d="M42.51,15.33l0.81-0.34l-0.29-0.69l3.55-1.5l0.29,0.69l0.81-0.34l0.63,1.5c-1.89,0.37-3.63,1.15-5.14,2.23
			L42.51,15.33z M58.41,16.75l0.6-1.42l-0.81-0.34l0.29-0.69l-3.55-1.5l-0.29,0.69l-0.81-0.34l-0.62,1.47
			C55.12,14.96,56.88,15.69,58.41,16.75z"/>
	</g>
</g>
</svg>
