<?xml version="1.0" encoding="utf-8"?>
<!-- Generator: Adobe Illustrator 23.0.3, SVG Export Plug-In . SVG Version: 6.00 Build 0)  -->
<svg version="1.0" id="Livello_1" xmlns="http://www.w3.org/2000/svg" xmlns:xlink="http://www.w3.org/1999/xlink" x="0px" y="0px"
	 viewBox="0 0 101 50" enable-background="new 0 0 101 50" xml:space="preserve">
<g>
	<rect x="0" y="0" transform="matrix(-1 -2.222412e-11 2.222412e-11 -1 101 50)" fill="#3FA9F5" width="101" height="50"/>
	<path fill="#FFFFFF" d="M60.03,15.28c-0.29-0.29-0.75-0.29-1.04,0l-8.75,8.76l-1.3-1.31c0.87-2.11,0.46-4.62-1.26-6.33
		c-1.45-1.45-3.48-1.97-5.35-1.56c-0.34,0.07-0.46,0.5-0.22,0.74l2.95,2.95c0.37,0.37,0.37,0.97,0,1.35l-2.11,2.11
		c-0.37,0.37-0.97,0.37-1.34,0l-2.95-2.95c-0.25-0.25-0.67-0.12-0.74,0.22c-0.41,1.87,0.1,3.9,1.56,5.35
		c1.72,1.71,4.23,2.13,6.34,1.25l1.3,1.31l-1.34,1.34c-0.17,0.17-0.17,0.45,0,0.62l0.89,0.89l-3.52,3.52l-0.64-0.64
		c-0.2-0.2-0.53-0.16-0.68,0.08l-2.84,4.52c-0.11,0.17-0.09,0.4,0.06,0.55l1.14,1.13c0.14,0.15,0.37,0.17,0.55,0.06l4.52-2.84
		c0.24-0.15,0.28-0.48,0.08-0.69l-0.54-0.53l3.52-3.52l0.89,0.89c0.17,0.17,0.45,0.17,0.62,0l1.34-1.34l7.54,7.54
		c0.29,0.29,0.75,0.29,1.04,0l2.09-2.09c0.29-0.29,0.29-0.75,0-1.04l-7.54-7.54l8.75-8.75c0.29-0.29,0.29-0.75,0-1.04L60.03,15.28z
		 M58.09,35.02c0.44-0.44,1.14-0.44,1.58,0c0.44,0.44,0.44,1.14,0,1.58c-0.44,0.44-1.14,0.44-1.58,0
		C57.65,36.17,57.65,35.46,58.09,35.02L58.09,35.02z M54.71,24.98l-3.93,3.93l-1.21-1.21l-0.19-0.19l2.17-2.17l7.82-7.82l1.4,1.4
		L54.71,24.98z"/>
</g>
</svg>
