<?xml version="1.0" encoding="utf-8"?>
<!-- Generator: Adobe Illustrator 23.0.3, SVG Export Plug-In . SVG Version: 6.00 Build 0)  -->
<svg version="1.0" id="Livello_1" xmlns="http://www.w3.org/2000/svg" xmlns:xlink="http://www.w3.org/1999/xlink" x="0px" y="0px"
	 viewBox="0 0 50 50" enable-background="new 0 0 50 50" xml:space="preserve">
<g>
	<rect opacity="0.44" fill="none" width="50" height="50"/>
	<g>
		<path fill="#3FA9F5" d="M25,13.27c-6.4,0-11.62,5.21-11.62,11.62c0,6.4,5.21,11.62,11.62,11.62c6.41,0,11.62-5.21,11.62-11.62
			C36.62,18.48,31.41,13.27,25,13.27L25,13.27z M31.7,31.29v-0.46c0-1.58-1.83-2.16-2.81-2.58c-0.35-0.15-1.02-0.47-1.71-0.81
			c-0.23-0.11-0.44-0.42-0.47-0.67l-0.07-0.75c0.53-0.49,1-1.17,1.08-1.93h0.12c0.19,0,0.36-0.14,0.39-0.31l0.19-1.15
			c0.02-0.25-0.21-0.39-0.4-0.39c0.01-0.03,0.01-0.05,0.01-0.07c0.02-0.14,0.04-0.27,0.05-0.4c0.01-0.11,0.02-0.21,0.03-0.32
			c0.02-0.54-0.07-1.02-0.22-1.28c-0.15-0.37-0.39-0.73-0.71-1.04c-0.91-0.86-1.96-1.19-2.86-0.5c-0.61-0.1-1.34,0.17-1.86,0.79
			c-0.29,0.34-0.46,0.72-0.54,1.1c-0.07,0.24-0.11,0.52-0.12,0.83c-0.01,0.35,0.02,0.66,0.08,0.91c-0.18,0.01-0.36,0.16-0.36,0.39
			l0.18,1.15c0.03,0.17,0.2,0.31,0.39,0.31h0.1c0.17,0.82,0.61,1.49,1.09,1.97l-0.07,0.72c-0.03,0.26-0.24,0.56-0.47,0.68
			c-0.66,0.32-1.32,0.63-1.71,0.8c-0.92,0.38-2.81,1-2.81,2.58v0.36c-1.54-1.66-2.49-3.87-2.49-6.3c0-5.12,4.16-9.28,9.28-9.28
			c5.12,0,9.28,4.16,9.28,9.28C34.28,27.37,33.29,29.62,31.7,31.29L31.7,31.29z"/>
	</g>
</g>
</svg>
