<?xml version="1.0" encoding="utf-8"?>
<!-- Generator: Adobe Illustrator 23.0.3, SVG Export Plug-In . SVG Version: 6.00 Build 0)  -->
<svg version="1.0" id="Livello_1" xmlns="http://www.w3.org/2000/svg" xmlns:xlink="http://www.w3.org/1999/xlink" x="0px" y="0px"
	 viewBox="0 0 101 50" enable-background="new 0 0 101 50" xml:space="preserve">
<g>
	
		<rect x="0" y="0" transform="matrix(-1 -2.222412e-11 2.222412e-11 -1 101 50)" opacity="0.44" fill="none" width="101" height="50"/>
	<path fill="#3FA9F5" d="M69,33.21V31.3l-0.27-0.09l-2.04-0.67l-0.55-1.32l1.05-2.22l-1.35-1.35l-0.25,0.13l-1.92,0.97l-1.32-0.55
		l-0.83-2.31h-1.91l-0.09,0.27l-0.67,2.04l-1.32,0.54l-2.22-1.05l-1.35,1.35l0.13,0.25l0.97,1.92l-0.55,1.32l-2.31,0.83v1.91
		l0.27,0.09l2.04,0.67l0.55,1.32l-1.05,2.22l1.35,1.35l0.25-0.13l1.92-0.97l1.32,0.54l0.83,2.31h1.91l0.09-0.27l0.67-2.04l1.32-0.55
		l2.22,1.05l1.35-1.35l-0.13-0.25l-0.97-1.92l0.55-1.32L69,33.21z M60.61,34.97c-1.48,0-2.67-1.2-2.67-2.67
		c0-1.48,1.2-2.67,2.67-2.67c1.48,0,2.67,1.2,2.67,2.67C63.29,33.77,62.09,34.97,60.61,34.97 M60.87,19.11h-10.6v-1.98h10.6V19.11z
		 M56.25,22.94h-5.98v-1.48h5.98V22.94z M47.16,33.59c0,1.78-1.45,3.22-3.23,3.22c-1.78,0-3.22-1.44-3.22-3.22
		c0-1.38,0.88-2.56,2.1-3.01V19.89h2.25v10.7C46.28,31.04,47.16,32.21,47.16,33.59z M52.14,27.27h-1.88v-1.98h3.04l-1.44,1.43
		L52.14,27.27z M48.21,16.37c0-1.68-1.36-3.05-3.05-3.05h-2.47c-1.68,0-3.05,1.36-3.05,3.05v12.56c-1.26,1.16-2.05,2.81-2.05,4.66
		c0,3.5,2.84,6.34,6.34,6.34c3.5,0,6.34-2.84,6.34-6.34c0-1.85-0.79-3.5-2.06-4.66V16.37z M43.93,37.85c-2.35,0-4.26-1.91-4.26-4.27
		c0-1.2,0.49-2.31,1.38-3.13l0.67-0.62v-0.91V16.37c0-0.54,0.44-0.97,0.97-0.97h2.47c0.54,0,0.97,0.44,0.97,0.97v12.56v0.91
		l0.67,0.62c0.89,0.82,1.38,1.93,1.38,3.13C48.2,35.94,46.28,37.85,43.93,37.85z"/>
</g>
</svg>
