<?xml version="1.0" encoding="utf-8"?>
<!-- Generator: Adobe Illustrator 23.0.3, SVG Export Plug-In . SVG Version: 6.00 Build 0)  -->
<svg version="1.0" id="Livello_1" xmlns="http://www.w3.org/2000/svg" xmlns:xlink="http://www.w3.org/1999/xlink" x="0px" y="0px"
	 viewBox="0 0 101 50" enable-background="new 0 0 101 50" xml:space="preserve">
<g>
	
		<rect x="0" y="0" transform="matrix(-1 -2.222412e-11 2.222412e-11 -1 101 50)" opacity="0.44" fill="none" width="101" height="50"/>
	<path fill="#B3B3B3" d="M69.3,32.82v-1.91l-0.27-0.09l-2.04-0.67l-0.55-1.32l1.05-2.22l-1.35-1.35l-0.25,0.13l-1.92,0.97
		l-1.32-0.54l-0.83-2.31h-1.91l-0.09,0.27l-0.67,2.04l-1.32,0.55l-2.22-1.05l-1.35,1.35l0.13,0.25l0.97,1.92l-0.54,1.31l-2.31,0.83
		v1.91l0.27,0.09l2.04,0.67l0.55,1.32l-1.05,2.22l1.35,1.35l0.25-0.13l1.92-0.97l1.32,0.55l0.83,2.31h1.91l0.09-0.27l0.67-2.04
		l1.32-0.55l2.22,1.05l1.35-1.35l-0.13-0.25l-0.98-1.92l0.55-1.32L69.3,32.82z M60.91,34.58c-1.48,0-2.67-1.2-2.67-2.68
		c0-1.48,1.2-2.67,2.67-2.67c1.48,0,2.67,1.2,2.67,2.67C63.58,33.38,62.38,34.58,60.91,34.58 M43.6,13.71h-5.08
		c-0.67,0-1.22,0.55-1.22,1.22v20.75c0,0.67,0.55,1.22,1.22,1.22h5.08c0.67,0,1.22-0.55,1.22-1.22V14.93
		C44.82,14.26,44.27,13.71,43.6,13.71z M39.47,15.1c0.48,0,0.87,0.39,0.87,0.87c0,0.48-0.39,0.87-0.87,0.87
		c-0.48,0-0.87-0.39-0.87-0.87C38.6,15.49,38.99,15.1,39.47,15.1z M43.42,34.94H38.6V33.3h4.82V34.94z M43.42,31.95H38.6v-1.64h4.82
		V31.95z M43.42,28.97H38.6v-1.64h4.82V28.97z M43.42,25.98H38.6v-1.64h4.82V25.98z M57.58,24.34h0.24l0.83-2.56h4.18v-6.85
		c0-0.67-0.54-1.22-1.22-1.22h-5.08c-0.67,0-1.22,0.55-1.22,1.22v8.34L57.58,24.34z M57.5,15.1c0.48,0,0.87,0.39,0.87,0.87
		c0,0.48-0.39,0.87-0.87,0.87c-0.48,0-0.87-0.39-0.87-0.87C56.63,15.49,57.02,15.1,57.5,15.1z M53.45,35.02l-1.01-0.33v0.26h-4.82
		V33.3h3.17v-1.35h-3.17v-1.64h3.17v-0.55l2.64-0.94l-1.26-2.49l1.66-1.66v-9.74c0-0.67-0.54-1.22-1.22-1.22h-5.08
		c-0.67,0-1.22,0.55-1.22,1.22v20.75c0,0.67,0.55,1.22,1.22,1.22h5.02L53.45,35.02z M48.48,15.1c0.48,0,0.87,0.39,0.87,0.87
		c0,0.48-0.39,0.87-0.87,0.87c-0.48,0-0.87-0.39-0.87-0.87C47.62,15.49,48,15.1,48.48,15.1z M47.62,24.34h4.82v1.64h-4.82V24.34z
		 M47.62,27.33h4.82v1.64h-4.82V27.33z"/>
</g>
</svg>
