<?xml version="1.0" encoding="utf-8"?>
<!-- Generator: Adobe Illustrator 23.0.3, SVG Export Plug-In . SVG Version: 6.00 Build 0)  -->
<svg version="1.0" id="Livello_1" xmlns="http://www.w3.org/2000/svg" xmlns:xlink="http://www.w3.org/1999/xlink" x="0px" y="0px"
	 viewBox="0 0 46.24 73.88" enable-background="new 0 0 46.24 73.88" xml:space="preserve">
<g>
	<g opacity="0.4">
		<g>
			<rect x="10.61" fill="#4D4D4D" width="0.71" height="48.76"/>
		</g>
	</g>
	<g opacity="0.4">
		<g>
			<rect x="35.36" fill="#4D4D4D" width="0.71" height="48.76"/>
		</g>
	</g>
	<g opacity="0.15">
		<g>
			<polygon fill="#E4E4E5" points="11.32,0 11.32,48.76 15.46,48.76 17.28,44.9 29.33,44.9 31.21,48.76 35.36,48.76 35.36,0 			"/>
		</g>
	</g>
	<g opacity="0.15">
		<g>
			<polygon fill="#CCCCCC" points="38.47,52.14 27.85,52.14 18.83,52.14 8.21,52.14 5.19,57.04 18.37,57.04 28.31,57.04 
				41.49,57.04 			"/>
		</g>
	</g>
	<g opacity="0.35">
		<g>
			<path fill="#818080" d="M18.83,52.14h9.03h10.23v-0.56c0-1.23-1-2.82-2.23-2.82H10.82c-1.23,0-2.23,1.59-2.23,2.82v0.56H18.83z"
				/>
		</g>
	</g>
	<g opacity="0.5">
		<g>
			<polygon fill="#4D4D4D" points="31.21,48.76 29.33,44.9 17.28,44.9 15.46,48.76 			"/>
		</g>
	</g>
	<polygon opacity="0.8" fill="#454545" points="3.51,68.83 3.51,70.23 4.25,70.23 4.25,71.15 3.51,71.15 2.79,71.15 2.79,70.2 
		2.06,70.2 2.06,71.15 1.28,71.15 0.6,71.15 0.6,70.23 1.28,70.23 1.28,68.83 	"/>
	<polygon opacity="0.6" fill="#464746" points="2.29,62.96 3.22,62.96 2.08,64.2 1.14,64.2 	"/>
	<rect x="2.29" y="60.46" opacity="0.6" fill="#7A7978" width="0.93" height="2.49"/>
	<polygon opacity="0.6" fill="#6E6D6D" points="1.14,59.22 2.08,59.22 3.22,60.46 2.29,60.46 	"/>
	<polygon opacity="0.6" fill="#454545" points="1.14,59.22 2.29,60.46 2.29,62.96 1.14,64.2 0,62.96 0,60.46 	"/>
	<path opacity="0.15" fill="#999999" d="M4.01,67.71l-0.9-0.39c-0.13-0.06-0.23-0.28-0.23-0.54v-1.73c0.79-0.38,1.37-1.73,1.37-3.33
		c0-1.9-0.82-3.45-1.83-3.45c-0.49,0-0.93,0.37-1.25,0.95h0.91l1.14,1.24v2.49L2.08,64.2H1.17c0.22,0.4,0.49,0.69,0.8,0.84v1.73
		c0,0.26-0.1,0.48-0.23,0.54l-0.9,0.39C0.7,67.77,0.6,68,0.6,68.26v1.97h0.68v-1.4h2.22v1.4h0.74v-1.97
		C4.25,68,4.15,67.77,4.01,67.71"/>
	<polygon opacity="0.3" fill="#6F6F6F" points="2.79,70.2 2.79,71.15 3.51,71.15 4.25,71.15 4.25,73.59 0.6,73.59 0.6,71.15 
		1.28,71.15 2.06,71.15 2.06,70.2 	"/>
	<polygon opacity="0.63" fill="#615F5F" points="12.45,59.59 14.49,60.69 14.66,63.18 12.8,64.56 10.76,63.46 10.59,60.97 	"/>
	<polygon opacity="0.6" fill="#434243" points="14.66,63.18 15.3,63.14 13.44,64.52 12.8,64.56 	"/>
	<polygon opacity="0.6" fill="#6D6D6C" points="14.49,60.69 15.12,60.65 15.3,63.14 14.66,63.18 	"/>
	<polygon opacity="0.6" fill="#615F5F" points="12.45,59.59 13.09,59.55 15.13,60.65 14.49,60.69 	"/>
	<path opacity="0.6" fill="#676666" d="M15.52,57.78l0.09,1.23c0.84,0.57,1.44,1.56,1.52,2.72l0,0.09l0.2,2.9l0,0.01l0.01,0.12
		c0.03,0.41,0.16,1.76,0.53,2.1c0.09,0.08,0.07,0.16,0.65,0.22l3.11,0.37c0,0,0.01,0,0.02,0c0.01,0,0.02,0.01,0.03,0.01
		c0.01,0,0.02,0.01,0.03,0.01c0.01,0,0.02,0.01,0.03,0.01c0.01,0,0.02,0.01,0.03,0.01c0.01,0,0.01,0.01,0.02,0.01l0,0
		c0,0,0.01,0,0.01,0c0.01,0.01,0.02,0.01,0.03,0.02c0.01,0.01,0.02,0.02,0.03,0.03c0.01,0.01,0.02,0.02,0.03,0.03
		c0.01,0.01,0.02,0.02,0.02,0.03c0,0,0,0,0.01,0.01c0,0.01,0.01,0.01,0.01,0.01c0,0.01,0.01,0.02,0.01,0.02
		c0.04,0.06,0.07,0.12,0.09,0.19c0,0.01,0.01,0.02,0.02,0.03c0,0.02,0.01,0.04,0.01,0.06c0,0.01,0,0.01,0,0.02l0.14,1.95l1.01-0.07
		l-0.14-1.96l0-0.02c0-0.02-0.01-0.04-0.01-0.06c0-0.01-0.01-0.02-0.01-0.03c-0.02-0.07-0.05-0.13-0.09-0.19
		c0-0.01-0.01-0.02-0.01-0.03c0,0-0.01-0.01-0.01-0.01c0,0,0-0.01-0.01-0.01c-0.01-0.01-0.02-0.02-0.02-0.02
		c-0.01-0.01-0.02-0.02-0.04-0.03c-0.01-0.01-0.02-0.02-0.03-0.03c-0.01-0.01-0.02-0.02-0.03-0.02c0,0,0,0-0.01,0l0,0
		c-0.01,0-0.01-0.01-0.02-0.01c-0.01,0-0.02-0.01-0.03-0.02c-0.01,0-0.02-0.01-0.03-0.01c-0.01,0-0.02-0.01-0.03-0.01
		c-0.01,0-0.02-0.01-0.03-0.01c-0.01,0-0.01,0-0.02,0l-3.11-0.37c-0.57-0.07-0.55-0.14-0.65-0.22c-0.17-0.15-0.29-0.52-0.37-0.91
		l-0.29-4.23l0-0.09c0-0.04-0.01-0.08-0.01-0.12c-0.01-0.13-0.03-0.25-0.06-0.38c-0.01-0.06-0.04-0.11-0.05-0.17
		c-0.04-0.15-0.08-0.28-0.14-0.42c-0.05-0.12-0.09-0.24-0.15-0.36c-0.07-0.13-0.14-0.25-0.22-0.36c-0.04-0.07-0.08-0.14-0.13-0.21
		c-0.05-0.06-0.1-0.12-0.16-0.18c-0.02-0.02-0.03-0.03-0.04-0.05c-0.01-0.02-0.03-0.03-0.04-0.05c-0.07-0.07-0.14-0.14-0.21-0.2
		c-0.06-0.05-0.13-0.11-0.19-0.16c-0.04-0.03-0.08-0.06-0.12-0.08l-0.09-1.23l-0.33,0.03l-3.34,0.23l0,0.01L15.52,57.78z"/>
	<path opacity="0.15" fill="#E4E4E5" d="M16.83,68.4c-0.02-0.27-0.2-0.48-0.44-0.53l-1.56-0.28c-0.23-0.04-0.41-0.25-0.43-0.51
		l-0.12-1.73c1.32-0.48,2.21-1.89,2.1-3.48c-0.13-1.9-1.64-3.34-3.36-3.22c-1.72,0.12-3.01,1.76-2.88,3.66
		c0.11,1.6,1.2,2.87,2.56,3.16l0.12,1.73c0.02,0.26-0.13,0.49-0.35,0.57l-1.51,0.5c-0.23,0.08-0.38,0.32-0.36,0.58l0.14,1.96
		L12,70.71l-0.11-1.49l3.69-0.26l0.12,1.5l1.26-0.09L16.83,68.4z M12.8,64.56l-2.04-1.1l-0.17-2.49l1.87-1.38l0.64-0.04l2.03,1.11
		l0.18,2.49l-1.86,1.38L12.8,64.56z"/>
	<polygon opacity="0.8" fill="#6D6D6C" points="23.21,69.95 22.22,70.01 22.22,70.02 16.97,70.36 17.02,71.05 23.25,70.59 	"/>
	<polygon opacity="0.6" fill="#7A7978" points="17.02,71.01 23.25,70.59 23.42,73.03 17.19,73.45 	"/>
	<polygon opacity="0.3" fill="#979796" points="14.46,70.23 14.52,71.18 15.75,71.1 17.02,71.01 17.19,73.45 10.96,73.88 
		10.79,71.44 11.96,71.36 13.29,71.27 13.23,70.32 	"/>
	<polygon opacity="0.8" fill="#615F5F" points="10.79,71.44 11.96,71.36 13.29,71.27 13.23,70.32 14.46,70.23 14.52,71.18 
		15.75,71.1 17.02,71.01 16.95,70.1 16.97,70.36 15.71,70.45 15.59,68.96 11.89,69.22 12,70.71 10.75,70.8 10.8,71.48 	"/>
	<path opacity="0.33" fill="#818080" d="M4.81,67.71l-0.9-0.39c-0.13-0.06-0.23-0.28-0.23-0.54v-1.73c0.79-0.38,1.37-1.73,1.37-3.33
		c0-1.17-0.31-2.2-0.79-2.83v-1.23h-2.1v0.66c0.09-0.02,0.17-0.05,0.26-0.05l0,0h0c0.01,0,0.03,0.01,0.04,0.01l0.35,0.07
		c0.82,0.34,1.44,1.71,1.44,3.36c0,1.6-0.58,2.95-1.37,3.33v1.73c0,0.26,0.1,0.48,0.23,0.54l0.9,0.39c0.14,0.06,0.23,0.29,0.23,0.56
		v1.97h0.8v-1.97C5.05,68,4.95,67.77,4.81,67.71z"/>
	<path opacity="0.33" fill="#818080" d="M12.84,67.19l-0.12-1.73c-0.64-0.13-1.21-0.49-1.66-0.99l0.26,3.67l1.17-0.38
		C12.71,67.68,12.85,67.45,12.84,67.19"/>
	<path opacity="0.33" fill="#818080" d="M22.08,68.06c0-0.01,0-0.01,0-0.02c0-0.02,0-0.04-0.01-0.06c0-0.01-0.01-0.02-0.02-0.03
		c-0.02-0.07-0.05-0.13-0.09-0.19c0-0.01-0.01-0.02-0.01-0.03c0,0-0.01-0.01-0.01-0.01c0,0,0,0-0.01-0.01
		c-0.01-0.01-0.02-0.02-0.02-0.02c-0.01-0.01-0.02-0.02-0.04-0.03c-0.01-0.01-0.02-0.02-0.03-0.03c-0.01-0.01-0.02-0.01-0.03-0.02
		c0,0-0.01,0-0.01,0l0,0c-0.01,0-0.01-0.01-0.02-0.01c-0.01,0-0.02-0.01-0.03-0.02c-0.01,0-0.02-0.01-0.03-0.01
		c-0.01,0-0.02-0.01-0.03-0.01c-0.01,0-0.02-0.01-0.03-0.01c0,0-0.01,0-0.02,0l-3.11-0.37c-0.57-0.07-0.55-0.14-0.65-0.22
		c-0.38-0.34-0.5-1.69-0.53-2.09l-0.01-0.12l0-0.01l-0.2-2.9l0-0.09c-0.08-1.16-0.68-2.15-1.52-2.72l-0.09-1.23l-3.59,0.25l0.06,0.9
		c0.32-0.15,0.66-0.26,1.03-0.28c1.72-0.12,3.22,1.32,3.36,3.22c0.11,1.6-0.79,3.01-2.1,3.48l0.12,1.73
		c0.02,0.26,0.19,0.47,0.43,0.51l1.56,0.28c0.06,0.01,0.12,0.03,0.17,0.06c0,0,0,0,0,0c0.05,0.03,0.09,0.07,0.13,0.11
		c0,0,0,0.01,0.01,0.01c0.01,0.01,0.02,0.03,0.02,0.04c0.04,0.06,0.07,0.12,0.09,0.19c0.01,0.04,0.02,0.07,0.03,0.11l0.14,1.96
		l5.24-0.34L22.08,68.06z"/>
	<g>
		<path opacity="0.6" fill="#676666" d="M10.61,68.84c-0.02-0.26,0.13-0.5,0.36-0.58l0.34-0.11l-0.06-0.83l-4.03-0.53
			c-1.02,0-0.88-1.27-0.72-2c0.59-0.57,1-1.72,1-3.06c0-1.43-0.46-2.66-1.12-3.18v-0.87h-2.1H4.26v0.61v0.62
			c0.47,0.62,0.79,1.65,0.79,2.83c0,1.6-0.58,2.95-1.37,3.33v1.73c0,0.26,0.1,0.48,0.23,0.54l0.9,0.39
			c0.14,0.06,0.23,0.29,0.23,0.56v1.97h1.67h0.8h3.2L10.61,68.84z"/>
	</g>
	<polygon opacity="0.6" fill="#7A7978" points="10.79,71.44 10.77,71.15 4.25,71.15 4.25,73.59 10.94,73.59 10.79,71.44 	"/>
	<polygon opacity="0.8" fill="#7A7978" points="10.75,70.8 10.7,70.21 4.25,70.21 4.25,71.15 10.77,71.15 10.75,70.8 	"/>
	<path opacity="0.35" fill="#818080" d="M6.39,57.66v0.87c0.66,0.52,1.12,1.75,1.12,3.18c0,1.34-0.41,2.49-1,3.06
		c-0.14,0.64-0.26,1.68,0.37,1.94h4.33l-0.16-2.24c-0.51-0.57-0.85-1.32-0.91-2.17c-0.1-1.49,0.68-2.81,1.85-3.37l-0.06-0.9
		l4.69-0.34l0.09,1.23c0.04,0.03,0.08,0.05,0.12,0.08c0.07,0.05,0.13,0.1,0.19,0.16c0.07,0.06,0.14,0.13,0.21,0.2
		c0.01,0.01,0.03,0.03,0.04,0.05c0.02,0.02,0.03,0.03,0.04,0.05c0.05,0.06,0.11,0.12,0.16,0.18c0.05,0.06,0.08,0.14,0.13,0.21
		c0.08,0.12,0.15,0.24,0.22,0.36c0.06,0.12,0.11,0.24,0.15,0.36c0.05,0.14,0.1,0.27,0.14,0.42c0.01,0.06,0.04,0.11,0.05,0.17
		c0.02,0.12,0.04,0.25,0.06,0.38c0,0.04,0.01,0.08,0.01,0.12l0,0.09l0.29,4.23c0.06,0.29,0.14,0.57,0.25,0.75h8.7
		c0.11-0.18,0.19-0.46,0.25-0.75l0.29-4.23l0-0.09c0-0.04,0.01-0.08,0.01-0.12c0.01-0.13,0.03-0.25,0.06-0.38
		c0.01-0.06,0.04-0.11,0.05-0.17c0.04-0.15,0.08-0.28,0.14-0.42c0.05-0.12,0.09-0.24,0.15-0.36c0.07-0.13,0.14-0.25,0.22-0.36
		c0.04-0.07,0.08-0.14,0.13-0.21c0.05-0.06,0.1-0.12,0.16-0.18c0.02-0.02,0.03-0.03,0.04-0.05c0.01-0.02,0.03-0.03,0.04-0.05
		c0.07-0.07,0.14-0.14,0.21-0.2c0.06-0.05,0.13-0.11,0.19-0.16c0.04-0.03,0.08-0.06,0.12-0.08l0.09-1.23l4.69,0.34l-0.06,0.9
		c1.17,0.56,1.95,1.88,1.85,3.37c-0.06,0.85-0.4,1.6-0.91,2.17l-0.16,2.24h4.33c0.64-0.26,0.52-1.3,0.37-1.94
		c-0.59-0.57-1-1.72-1-3.06c0-1.43,0.46-2.66,1.12-3.18v-0.87l2.87,0c-0.47-0.38-1.05-0.63-1.7-0.63H5.66
		c-0.65,0-1.24,0.24-1.7,0.63L6.39,57.66z"/>
	<g opacity="0.4">
		<path fill="#4D4D4D" d="M39.01,66.78c0.13,0,0.25-0.02,0.34-0.06h-4.33l-0.04,0.59L39.01,66.78z"/>
		<path fill="#4D4D4D" d="M7.23,66.78l4.03,0.53l-0.04-0.59H6.89C6.98,66.75,7.1,66.78,7.23,66.78z"/>
		<path fill="#4D4D4D" d="M19.54,67.09l3.11,0.37c0,0,0.01,0,0.02,0c0.01,0,0.02,0.01,0.03,0.01c0.01,0,0.02,0.01,0.03,0.01
			c0.01,0,0.02,0.01,0.03,0.01c0.01,0,0.02,0.01,0.03,0.02c0.01,0,0.01,0.01,0.02,0.01l0,0c0,0,0.01,0,0.01,0
			c0.01,0.01,0.02,0.01,0.03,0.02c0.01,0.01,0.02,0.02,0.03,0.03c0.01,0.01,0.02,0.02,0.04,0.03c0.01,0.01,0.02,0.02,0.02,0.02
			c0,0,0,0.01,0.01,0.01c0,0,0.01,0.01,0.01,0.01c0,0.01,0.01,0.02,0.01,0.03c0.04,0.06,0.07,0.12,0.09,0.19
			c0,0.01,0.01,0.02,0.01,0.03c0,0.02,0.01,0.04,0.01,0.06l0,0.02l0.03,0.42l0.03-0.42l0-0.02c0-0.02,0.01-0.04,0.01-0.06
			c0-0.01,0.01-0.02,0.01-0.03c0.02-0.07,0.05-0.13,0.09-0.19c0-0.01,0.01-0.02,0.01-0.03c0,0,0.01-0.01,0.01-0.01
			c0,0,0-0.01,0.01-0.01c0.01-0.01,0.02-0.02,0.02-0.02c0.01-0.01,0.02-0.02,0.04-0.03c0.01-0.01,0.02-0.02,0.03-0.03
			c0.01-0.01,0.02-0.02,0.03-0.02c0,0,0,0,0.01,0l0,0c0.01,0,0.01-0.01,0.02-0.01c0.01,0,0.02-0.01,0.03-0.02
			c0.01,0,0.02-0.01,0.03-0.01c0.01,0,0.02-0.01,0.03-0.01c0.01,0,0.02-0.01,0.03-0.01c0.01,0,0.01,0,0.02,0l3.11-0.37
			c0.57-0.07,0.55-0.14,0.65-0.22c0.04-0.04,0.08-0.09,0.12-0.15h-8.7c0.04,0.06,0.08,0.11,0.12,0.15
			C18.98,66.95,18.96,67.02,19.54,67.09z"/>
	</g>
	<g>
		<polygon opacity="0.8" fill="#454545" points="42.74,68.83 42.74,70.23 42,70.23 42,71.15 42.74,71.15 43.46,71.15 43.46,70.2 
			44.18,70.2 44.18,71.15 44.96,71.15 45.64,71.15 45.64,70.23 44.96,70.23 44.96,68.83 		"/>
		<polygon opacity="0.6" fill="#464746" points="43.96,62.96 43.02,62.96 44.17,64.2 45.1,64.2 		"/>
		<rect x="43.02" y="60.46" opacity="0.6" fill="#7A7978" width="0.93" height="2.49"/>
		<polygon opacity="0.6" fill="#6E6D6D" points="45.1,59.22 44.17,59.22 43.02,60.46 43.96,60.46 		"/>
		<polygon opacity="0.6" fill="#454545" points="45.1,59.22 43.96,60.46 43.96,62.96 45.1,64.2 46.24,62.96 46.24,60.46 		"/>
		<path opacity="0.15" fill="#999999" d="M42.23,67.71l0.9-0.39c0.13-0.06,0.23-0.28,0.23-0.54v-1.73
			c-0.79-0.38-1.37-1.73-1.37-3.33c0-1.9,0.82-3.45,1.83-3.45c0.49,0,0.93,0.37,1.25,0.95h-0.91l-1.14,1.24v2.49l1.14,1.25h0.91
			c-0.22,0.4-0.49,0.69-0.8,0.84v1.73c0,0.26,0.1,0.48,0.23,0.54l0.9,0.39c0.14,0.06,0.23,0.29,0.23,0.56v1.97h-0.68v-1.4h-2.22v1.4
			H42v-1.97C42,68,42.09,67.77,42.23,67.71"/>
		<polygon opacity="0.3" fill="#6F6F6F" points="43.46,70.2 43.46,71.15 42.74,71.15 42,71.15 42,73.59 45.64,73.59 45.64,71.15 
			44.96,71.15 44.18,71.15 44.18,70.2 		"/>
		<polygon opacity="0.4" fill="#615F5F" points="33.79,59.59 31.76,60.69 31.58,63.18 33.44,64.56 35.48,63.46 35.66,60.97 		"/>
		<polygon opacity="0.6" fill="#434243" points="31.58,63.18 30.95,63.14 32.81,64.52 33.44,64.56 		"/>
		<polygon opacity="0.6" fill="#6D6D6C" points="31.76,60.69 31.12,60.65 30.94,63.14 31.58,63.18 		"/>
		<polygon opacity="0.6" fill="#615F5F" points="33.79,59.59 33.15,59.55 31.12,60.65 31.76,60.69 		"/>
		<path opacity="0.6" fill="#676666" d="M30.72,57.78l-0.09,1.23c-0.84,0.57-1.44,1.56-1.52,2.72l0,0.09l-0.2,2.9l0,0.01l-0.01,0.12
			c-0.03,0.41-0.16,1.76-0.53,2.1c-0.09,0.08-0.07,0.16-0.65,0.22l-3.11,0.37c0,0-0.01,0-0.02,0c-0.01,0-0.02,0.01-0.03,0.01
			c-0.01,0-0.02,0.01-0.03,0.01c-0.01,0-0.02,0.01-0.03,0.01c-0.01,0-0.02,0.01-0.03,0.01c-0.01,0-0.01,0.01-0.02,0.01l0,0
			c0,0-0.01,0-0.01,0c-0.01,0.01-0.02,0.01-0.03,0.02c-0.01,0.01-0.02,0.02-0.03,0.03c-0.01,0.01-0.02,0.02-0.03,0.03
			c-0.01,0.01-0.02,0.02-0.02,0.03c0,0,0,0-0.01,0.01c0,0.01-0.01,0.01-0.01,0.01c0,0.01-0.01,0.02-0.01,0.02
			c-0.04,0.06-0.07,0.12-0.09,0.19c0,0.01-0.01,0.02-0.02,0.03c0,0.02-0.01,0.04-0.01,0.06c0,0.01,0,0.01,0,0.02l-0.14,1.95
			l-1.01-0.07l0.14-1.96l0-0.02c0-0.02,0.01-0.04,0.01-0.06c0-0.01,0.01-0.02,0.01-0.03c0.02-0.07,0.05-0.13,0.09-0.19
			c0-0.01,0.01-0.02,0.01-0.03c0,0,0.01-0.01,0.01-0.01c0,0,0-0.01,0.01-0.01c0.01-0.01,0.02-0.02,0.02-0.02
			c0.01-0.01,0.02-0.02,0.04-0.03c0.01-0.01,0.02-0.02,0.03-0.03c0.01-0.01,0.02-0.02,0.03-0.02c0,0,0,0,0.01,0l0,0
			c0.01,0,0.01-0.01,0.02-0.01c0.01,0,0.02-0.01,0.03-0.02c0.01,0,0.02-0.01,0.03-0.01c0.01,0,0.02-0.01,0.03-0.01
			c0.01,0,0.02-0.01,0.03-0.01c0.01,0,0.01,0,0.02,0l3.11-0.37c0.57-0.07,0.55-0.14,0.65-0.22c0.17-0.15,0.29-0.52,0.37-0.91
			l0.29-4.23l0-0.09c0-0.04,0.01-0.08,0.01-0.12c0.01-0.13,0.03-0.25,0.06-0.38c0.01-0.06,0.04-0.11,0.05-0.17
			c0.04-0.15,0.08-0.28,0.14-0.42c0.05-0.12,0.09-0.24,0.15-0.36c0.07-0.13,0.14-0.25,0.22-0.36c0.04-0.07,0.08-0.14,0.13-0.21
			c0.05-0.06,0.1-0.12,0.16-0.18c0.02-0.02,0.03-0.03,0.04-0.05c0.01-0.02,0.03-0.03,0.04-0.05c0.07-0.07,0.14-0.14,0.21-0.2
			c0.06-0.05,0.13-0.11,0.19-0.16c0.04-0.03,0.08-0.06,0.12-0.08l0.09-1.23l0.33,0.03l3.34,0.23l0,0.01L30.72,57.78z"/>
		<path opacity="0.15" fill="#E4E4E5" d="M29.27,70.37l1.26,0.09l0.12-1.5l3.69,0.26l-0.11,1.49l1.26,0.09l0.14-1.96
			c0.02-0.26-0.13-0.5-0.36-0.58l-1.51-0.5c-0.22-0.07-0.37-0.31-0.35-0.57l0.12-1.73c1.37-0.29,2.45-1.56,2.56-3.16
			c0.13-1.9-1.15-3.53-2.88-3.66c-1.72-0.12-3.22,1.32-3.36,3.22c-0.11,1.6,0.79,3.01,2.1,3.48l-0.12,1.73
			c-0.02,0.26-0.19,0.47-0.43,0.51l-1.56,0.28c-0.24,0.05-0.42,0.26-0.44,0.53L29.27,70.37z M32.81,64.52l-1.86-1.38l0.18-2.49
			l2.03-1.11l0.64,0.04l1.87,1.38l-0.17,2.49l-2.04,1.1L32.81,64.52z"/>
		<polygon opacity="0.8" fill="#6D6D6C" points="23.04,69.95 24.03,70.01 24.03,70.02 29.27,70.36 29.22,71.05 22.99,70.59 		"/>
		<polygon opacity="0.6" fill="#7A7978" points="29.23,71.01 22.99,70.59 22.82,73.03 29.05,73.45 		"/>
		<polygon opacity="0.3" fill="#979796" points="31.79,70.23 31.72,71.18 30.49,71.1 29.23,71.01 29.05,73.45 35.28,73.88 
			35.45,71.44 34.28,71.36 32.95,71.27 33.02,70.32 		"/>
		<polygon opacity="0.8" fill="#615F5F" points="35.45,71.44 34.28,71.36 32.95,71.27 33.02,70.32 31.79,70.23 31.72,71.18 
			30.49,71.1 29.23,71.01 29.29,70.1 29.27,70.36 30.54,70.45 30.66,68.96 34.35,69.22 34.24,70.71 35.5,70.8 35.45,71.48 		"/>
		<path opacity="0.33" fill="#818080" d="M41.43,67.71l0.9-0.39c0.13-0.06,0.23-0.28,0.23-0.54v-1.73
			c-0.79-0.38-1.37-1.73-1.37-3.33c0-1.17,0.31-2.2,0.79-2.83v-1.23h2.1v0.66c-0.09-0.02-0.17-0.05-0.26-0.05l0,0h0
			c-0.01,0-0.03,0.01-0.04,0.01l-0.35,0.07c-0.82,0.34-1.44,1.71-1.44,3.36c0,1.6,0.58,2.95,1.37,3.33v1.73
			c0,0.26-0.1,0.48-0.23,0.54l-0.9,0.39C42.09,67.77,42,68,42,68.26v1.97h-0.8v-1.97C41.2,68,41.3,67.77,41.43,67.71z"/>
		<path opacity="0.33" fill="#818080" d="M33.41,67.19l0.12-1.73c0.64-0.13,1.21-0.49,1.66-0.99l-0.26,3.67l-1.17-0.38
			C33.54,67.68,33.39,67.45,33.41,67.19"/>
		<path opacity="0.33" fill="#818080" d="M24.17,68.06c0-0.01,0-0.01,0-0.02c0-0.02,0-0.04,0.01-0.06c0-0.01,0.01-0.02,0.02-0.03
			c0.02-0.07,0.05-0.13,0.09-0.19c0-0.01,0.01-0.02,0.01-0.03c0,0,0.01-0.01,0.01-0.01c0,0,0,0,0.01-0.01
			c0.01-0.01,0.02-0.02,0.02-0.02c0.01-0.01,0.02-0.02,0.04-0.03c0.01-0.01,0.02-0.02,0.03-0.03c0.01-0.01,0.02-0.01,0.03-0.02
			c0,0,0.01,0,0.01,0l0,0c0.01,0,0.01-0.01,0.02-0.01c0.01,0,0.02-0.01,0.03-0.02c0.01,0,0.02-0.01,0.03-0.01
			c0.01,0,0.02-0.01,0.03-0.01c0.01,0,0.02-0.01,0.03-0.01c0,0,0.01,0,0.02,0l3.11-0.37c0.57-0.07,0.55-0.14,0.65-0.22
			c0.38-0.34,0.5-1.69,0.53-2.09l0.01-0.12l0-0.01l0.2-2.9l0-0.09c0.08-1.16,0.68-2.15,1.52-2.72l0.09-1.23l3.59,0.25l-0.06,0.9
			c-0.32-0.15-0.66-0.26-1.03-0.28c-1.72-0.12-3.22,1.32-3.36,3.22c-0.11,1.6,0.79,3.01,2.1,3.48l-0.12,1.73
			c-0.02,0.26-0.19,0.47-0.43,0.51l-1.56,0.28c-0.06,0.01-0.12,0.03-0.17,0.06c0,0,0,0,0,0c-0.05,0.03-0.09,0.07-0.13,0.11
			c0,0,0,0.01-0.01,0.01c-0.01,0.01-0.02,0.03-0.02,0.04c-0.04,0.06-0.07,0.12-0.09,0.19c-0.01,0.04-0.02,0.07-0.03,0.11l-0.14,1.96
			l-5.24-0.34L24.17,68.06z"/>
		<g>
			<path opacity="0.6" fill="#676666" d="M35.64,68.84c0.02-0.26-0.13-0.5-0.36-0.58l-0.34-0.11l0.06-0.83l4.03-0.53
				c1.02,0,0.88-1.27,0.72-2c-0.59-0.57-1-1.72-1-3.06c0-1.43,0.46-2.66,1.12-3.18v-0.87h2.1h0.02v0.61v0.62
				c-0.47,0.62-0.79,1.65-0.79,2.83c0,1.6,0.58,2.95,1.37,3.33v1.73c0,0.26-0.1,0.48-0.23,0.54l-0.9,0.39
				C41.3,67.77,41.2,68,41.2,68.26v1.97h-1.67h-0.8h-3.2L35.64,68.84z"/>
		</g>
		<polygon opacity="0.6" fill="#7A7978" points="35.45,71.44 35.47,71.15 42,71.15 42,73.59 35.3,73.59 35.45,71.44 		"/>
		<polygon opacity="0.8" fill="#7A7978" points="35.5,70.8 35.54,70.21 42,70.21 42,71.15 35.47,71.15 35.5,70.8 		"/>
	</g>
	<polygon opacity="0.5" fill="#4D4D4D" points="30.48,4.29 28.12,3.95 18.56,3.95 16.2,4.29 11.32,4.29 11.32,4.69 16.2,4.69 
		18.56,5.03 28.12,5.03 30.48,4.69 35.36,4.69 35.36,4.29 	"/>
	<polygon opacity="0.8" fill="#4D4D4D" points="30.48,42.86 28.12,42.51 18.56,42.51 16.2,42.86 11.32,42.86 11.32,43.25 
		35.36,43.25 35.36,42.86 	"/>
	<polygon opacity="0.5" fill="#4D4D4D" points="30.48,25.72 28.12,25.37 18.56,25.37 16.2,25.72 11.32,25.72 11.32,26.11 
		16.2,26.11 18.56,26.46 28.12,26.46 30.48,26.11 35.36,26.11 35.36,25.72 	"/>
	<polygon opacity="0.5" fill="#4D4D4D" points="30.48,17.15 28.12,16.8 18.56,16.8 16.2,17.15 11.32,17.15 11.32,17.54 16.2,17.54 
		18.56,17.89 28.12,17.89 30.48,17.54 35.36,17.54 35.36,17.15 	"/>
	<polygon opacity="0.5" fill="#4D4D4D" points="30.48,34.29 28.12,33.94 18.56,33.94 16.2,34.29 11.32,34.29 11.32,34.68 
		16.2,34.68 18.56,35.03 28.12,35.03 30.48,34.68 35.36,34.68 35.36,34.29 	"/>
	<polygon opacity="0.5" fill="#4D4D4D" points="30.48,30 28.12,29.66 18.56,29.66 16.2,30 11.32,30 11.32,30.4 16.2,30.4 
		18.56,30.74 28.12,30.74 30.48,30.4 35.36,30.4 35.36,30 	"/>
	<polygon opacity="0.8" fill="#4D4D4D" points="30.48,21.43 28.12,21.09 18.56,21.09 16.2,21.43 11.32,21.43 11.32,21.83 
		16.2,21.83 18.56,22.17 28.12,22.17 30.48,21.83 35.36,21.83 35.36,21.43 	"/>
	<polygon opacity="0.5" fill="#4D4D4D" points="30.48,38.57 28.12,38.23 18.56,38.23 16.2,38.57 11.32,38.57 11.32,38.97 
		16.2,38.97 18.56,39.31 28.12,39.31 30.48,38.97 35.36,38.97 35.36,38.57 	"/>
	<polygon opacity="0.5" fill="#4D4D4D" points="30.48,8.58 28.12,8.23 18.56,8.23 16.2,8.58 11.32,8.58 11.32,8.97 16.2,8.97 
		18.56,9.32 28.12,9.32 30.48,8.97 35.36,8.97 35.36,8.58 	"/>
	<polygon opacity="0.5" fill="#4D4D4D" points="30.48,12.86 28.12,12.52 18.56,12.52 16.2,12.86 11.32,12.86 11.32,13.26 
		16.2,13.26 18.56,13.6 28.12,13.6 30.48,13.26 35.36,13.26 35.36,12.86 	"/>
	<polygon opacity="0.8" fill="#4D4D4D" points="11.32,0.01 11.32,0.4 16.2,0.4 18.56,0.75 28.12,0.75 30.48,0.4 35.36,0.4 
		35.36,0.01 	"/>
</g>
</svg>
