<?xml version="1.0" encoding="UTF-8" standalone="no"?>
<!-- Generator: Adobe Illustrator 23.0.3, SVG Export Plug-In . SVG Version: 6.00 Build 0)  -->

<svg
   xmlns:dc="http://purl.org/dc/elements/1.1/"
   xmlns:cc="http://creativecommons.org/ns#"
   xmlns:rdf="http://www.w3.org/1999/02/22-rdf-syntax-ns#"
   xmlns:svg="http://www.w3.org/2000/svg"
   xmlns="http://www.w3.org/2000/svg"
   xmlns:sodipodi="http://sodipodi.sourceforge.net/DTD/sodipodi-0.dtd"
   xmlns:inkscape="http://www.inkscape.org/namespaces/inkscape"
   version="1.0"
   id="Livello_1"
   x="0px"
   y="0px"
   viewBox="0 0 32 32"
   enable-background="new 0 0 101 50"
   xml:space="preserve"
   sodipodi:docname="ASEM_Layout_14_P01_Stats_OFF_crop.svg"
   width="32"
   height="32"
   inkscape:version="0.92.3 (2405546, 2018-03-11)"><metadata
   id="metadata13"><rdf:RDF><cc:Work
       rdf:about=""><dc:format>image/svg+xml</dc:format><dc:type
         rdf:resource="http://purl.org/dc/dcmitype/StillImage" /><dc:title></dc:title></cc:Work></rdf:RDF></metadata><defs
   id="defs11" /><sodipodi:namedview
   pagecolor="#ffffff"
   bordercolor="#666666"
   borderopacity="1"
   objecttolerance="10"
   gridtolerance="10"
   guidetolerance="10"
   inkscape:pageopacity="0"
   inkscape:pageshadow="2"
   inkscape:window-width="1795"
   inkscape:window-height="1140"
   id="namedview9"
   showgrid="false"
   inkscape:zoom="11.845789"
   inkscape:cx="36.865714"
   inkscape:cy="14.51569"
   inkscape:window-x="0"
   inkscape:window-y="0"
   inkscape:window-maximized="0"
   inkscape:current-layer="g6" />
<g
   id="g6"
   transform="translate(0,-18)">
	
		<rect
   x="0"
   y="0"
   transform="rotate(-180,50.5,25)"
   width="101"
   height="50"
   id="rect2"
   style="opacity:0.43999999;fill:none" />
	<path
   d="m 30.859598,39.908227 v -1.815722 l -0.256673,-0.08556 -1.939305,-0.636929 -0.522852,-1.254845 0.998172,-2.110419 -1.283364,-1.283365 -0.23766,0.123584 -1.825228,0.92212 -1.254845,-0.522851 -0.789032,-2.195979 H 21.93309 l -0.08556,0.256673 -0.636929,1.939306 -1.254844,0.513345 -2.110421,-0.998172 -1.283364,1.283364 0.123583,0.237659 0.922121,1.825229 -0.522852,1.254845 -2.195977,0.789031 v 1.815722 l 0.256672,0.08556 1.939305,0.636929 0.522852,1.254844 -0.998171,2.110421 1.283363,1.283363 0.23766,-0.123582 1.825229,-0.922122 1.254844,0.513346 L 21.999632,47 h 1.815722 l 0.08556,-0.256673 0.636929,-1.939305 1.254845,-0.522852 2.11042,0.998172 1.283364,-1.283364 -0.123584,-0.23766 -0.92212,-1.825228 0.522852,-1.254845 z m -7.975869,1.673126 c -1.406946,0 -2.538208,-1.140768 -2.538208,-2.538208 0,-1.406948 1.140768,-2.538209 2.538208,-2.538209 1.406947,0 2.538209,1.140768 2.538209,2.538209 0.0096,1.39744 -1.131262,2.538208 -2.538209,2.538208 M 23.130896,26.504205 H 13.054114 v -1.882268 h 10.076782 z m -4.391956,3.640951 h -5.684826 v -1.406948 h 5.684826 z m -8.641317,10.124313 c 0,1.69214 -1.378427,3.061061 -3.070567,3.061061 -1.692138,0 -3.061059,-1.368921 -3.061059,-3.061061 0,-1.311882 0.836562,-2.433637 1.996343,-2.861425 V 27.245704 H 8.101279 V 37.41755 c 1.159781,0.427788 1.996344,1.540037 1.996344,2.851919 z m 4.734187,-6.008043 h -1.787203 v -1.882267 h 2.889946 L 14.56563,33.738574 Z M 11.095795,23.899452 C 11.095795,22.302376 9.8029252,21 8.196343,21 H 5.848263 C 4.251189,21 2.948812,22.29287 2.948812,23.899452 V 35.839489 C 1.751006,36.94223 1,38.510786 1,40.269469 c 0,3.327241 2.699817,6.027058 6.027056,6.027058 3.32724,0 6.027058,-2.699817 6.027058,-6.027058 0,-1.758683 -0.751006,-3.327239 -1.958319,-4.42998 z M 7.027056,44.319195 c -2.234003,0 -4.049726,-1.815722 -4.049726,-4.059232 0,-1.140768 0.465814,-2.195977 1.311884,-2.975503 L 4.926143,36.695064 V 35.829981 23.899452 c 0,-0.513346 0.418281,-0.922122 0.92212,-0.922122 h 2.34808 c 0.513346,0 0.922121,0.418283 0.922121,0.922122 v 11.940037 0.865081 l 0.6369292,0.589398 c 0.8460688,0.779524 1.3118828,1.834734 1.3118828,2.975501 0.01901,2.234004 -1.806216,4.049726 -4.04022,4.049726 z"
   id="path4"
   inkscape:connector-curvature="0"
   style="fill:#b3b3b3;stroke-width:0.95063984" />
</g>
</svg>