<?xml version="1.0" encoding="utf-8"?>
<!-- Generator: Adobe Illustrator 23.0.3, SVG Export Plug-In . SVG Version: 6.00 Build 0)  -->
<svg version="1.0" id="Livello_1" xmlns="http://www.w3.org/2000/svg" xmlns:xlink="http://www.w3.org/1999/xlink" x="0px" y="0px"
	 viewBox="0 0 40 94.74" enable-background="new 0 0 40 94.74" xml:space="preserve">
<path fill="#CCCCCC" d="M40,20.01c0-3.08-1.82-11.08-1.82-11.08l-1.42-1.01h-2.05V0H5.29h0v7.91H3.24L1.82,8.92
	c0,0-1.82,8-1.82,11.08v23.53h0.93v1.01H0l0,46.55c0,2.01,1.63,3.65,3.65,3.65h32.71c2.01,0,3.65-1.63,3.65-3.65V44.54h-0.89v-1.01
	H40V20.01C40,21.2,40,21.2,40,20.01z M7.1,7.91L7.1,7.91L7.1,7.91L7.1,7.91L7.1,7.91z"/>
</svg>
