<?xml version="1.0" encoding="UTF-8" standalone="no"?>
<!-- Generator: Adobe Illustrator 23.0.3, SVG Export Plug-In . SVG Version: 6.00 Build 0)  -->

<svg
   xmlns:dc="http://purl.org/dc/elements/1.1/"
   xmlns:cc="http://creativecommons.org/ns#"
   xmlns:rdf="http://www.w3.org/1999/02/22-rdf-syntax-ns#"
   xmlns:svg="http://www.w3.org/2000/svg"
   xmlns="http://www.w3.org/2000/svg"
   xmlns:sodipodi="http://sodipodi.sourceforge.net/DTD/sodipodi-0.dtd"
   xmlns:inkscape="http://www.inkscape.org/namespaces/inkscape"
   version="1.0"
   id="Livello_1"
   x="0px"
   y="0px"
   viewBox="0 0 32 32"
   enable-background="new 0 0 101 50"
   xml:space="preserve"
   sodipodi:docname="ASEM_Layout_14_P01_Server_OFF_crop.svg"
   width="32"
   height="32"
   inkscape:version="0.92.3 (2405546, 2018-03-11)"><metadata
   id="metadata13"><rdf:RDF><cc:Work
       rdf:about=""><dc:format>image/svg+xml</dc:format><dc:type
         rdf:resource="http://purl.org/dc/dcmitype/StillImage" /><dc:title></dc:title></cc:Work></rdf:RDF></metadata><defs
   id="defs11" /><sodipodi:namedview
   pagecolor="#ffffff"
   bordercolor="#666666"
   borderopacity="1"
   objecttolerance="10"
   gridtolerance="10"
   guidetolerance="10"
   inkscape:pageopacity="0"
   inkscape:pageshadow="2"
   inkscape:window-width="2560"
   inkscape:window-height="1377"
   id="namedview9"
   showgrid="false"
   inkscape:zoom="4.1881188"
   inkscape:cx="50.5"
   inkscape:cy="25"
   inkscape:window-x="-8"
   inkscape:window-y="-8"
   inkscape:window-maximized="1"
   inkscape:current-layer="g6" />
<g
   id="g6"
   transform="translate(0,-18)">
	
		<rect
   x="0"
   y="0"
   transform="rotate(-180,50.5,25)"
   width="101"
   height="50"
   id="rect2"
   style="opacity:0.43999999;fill:none" />
	<path
   d="m 31.086499,39.467281 v -1.795788 l -0.253856,-0.08461 -1.918014,-0.629936 -0.517112,-1.241068 0.987213,-2.087251 -1.269274,-1.269279 -0.235051,0.122226 -1.80519,0.911997 -1.241068,-0.50771 -0.780368,-2.171869 h -1.795788 l -0.08462,0.253855 -0.629936,1.918014 -1.241068,0.517112 -2.087251,-0.987213 -1.269274,1.269274 0.122227,0.235051 0.911997,1.80519 -0.50771,1.231666 -2.171869,0.780368 v 1.795788 l 0.253855,0.08462 1.918014,0.629937 0.517112,1.241068 -0.987214,2.08725 1.269275,1.269275 0.23505,-0.122227 1.80519,-0.911997 1.241068,0.517112 L 22.333206,46.5 h 1.795788 l 0.08462,-0.253855 0.629936,-1.918014 1.241068,-0.517112 2.087251,0.987213 1.269274,-1.269274 -0.122226,-0.235051 -0.921399,-1.805189 0.517112,-1.241069 z m -7.888305,1.654757 c -1.391501,0 -2.510342,-1.128243 -2.510342,-2.519744 0,-1.3915 1.128243,-2.510342 2.510342,-2.510342 1.3915,0 2.510342,1.128244 2.510342,2.510342 0,1.391501 -1.128244,2.519744 -2.510342,2.519744 M 6.9232794,21.5 H 2.1470478 C 1.5171117,21.5 1,22.017112 1,22.647048 v 19.509214 c 0,0.629936 0.5171117,1.147048 1.1470478,1.147048 h 4.7762316 c 0.6299361,0 1.1470478,-0.517112 1.1470478,-1.147048 V 22.647048 C 8.0703272,22.017112 7.5532155,21.5 6.9232794,21.5 Z m -3.8830387,1.306882 c 0.4512975,0 0.8179767,0.366679 0.8179767,0.817977 0,0.451297 -0.3666792,0.817977 -0.8179767,0.817977 -0.4512975,0 -0.8179767,-0.36668 -0.8179767,-0.817977 0,-0.451298 0.3666792,-0.817977 0.8179767,-0.817977 z M 6.7540429,41.460511 H 2.222264 v -1.541933 h 4.5317789 z m 0,-2.811207 H 2.222264 v -1.541933 h 4.5317789 z m 0,-2.801805 H 2.222264 v -1.541933 h 4.5317789 z m 0,-2.811207 H 2.222264 V 31.494359 H 6.7540429 Z M 20.067318,31.494359 h 0.225649 l 0.780369,-2.40692 h 3.930048 V 22.647048 C 25.003384,22.017112 24.495674,21.5 23.856336,21.5 h -4.776232 c -0.629936,0 -1.147047,0.517112 -1.147047,1.147048 v 7.841293 z m -0.07522,-8.687477 c 0.451297,0 0.817977,0.366679 0.817977,0.817977 0,0.451297 -0.36668,0.817977 -0.817977,0.817977 -0.451297,0 -0.817977,-0.36668 -0.817977,-0.817977 0,-0.451298 0.36668,-0.817977 0.817977,-0.817977 z m -3.807819,18.728846 -0.949605,-0.310267 v 0.244453 h -4.531778 v -1.551336 h 2.980444 v -1.269274 h -2.980444 v -1.541933 h 2.980444 v -0.517112 l 2.482136,-0.88379 -1.184656,-2.341106 1.560737,-1.560737 V 22.647048 C 16.541557,22.017112 16.033847,21.5 15.394509,21.5 h -4.776231 c -0.629937,0 -1.1470482,0.517112 -1.1470482,1.147048 v 19.509214 c 0,0.629936 0.5171112,1.147048 1.1470482,1.147048 h 4.719819 z m -4.67281,-18.728846 c 0.451298,0 0.817977,0.366679 0.817977,0.817977 0,0.451297 -0.366679,0.817977 -0.817977,0.817977 -0.451297,0 -0.817976,-0.36668 -0.817976,-0.817977 0.0094,-0.451298 0.366679,-0.817977 0.817976,-0.817977 z m -0.808574,8.687477 h 4.531778 v 1.541933 h -4.531779 z m 0,2.811207 h 4.531778 v 1.541933 h -4.531779 z"
   id="path4"
   inkscape:connector-curvature="0"
   style="fill:#b3b3b3;stroke-width:0.94020307" />
</g>
</svg>