<?xml version="1.0" encoding="utf-8"?>
<!-- Generator: Adobe Illustrator 23.0.3, SVG Export Plug-In . SVG Version: 6.00 Build 0)  -->
<svg version="1.0" id="Livello_1" xmlns="http://www.w3.org/2000/svg" xmlns:xlink="http://www.w3.org/1999/xlink" x="0px" y="0px"
	 viewBox="0 0 14 151.55" enable-background="new 0 0 14 151.55" xml:space="preserve">
<g>
	
		<rect x="-68.78" y="68.78" transform="matrix(-1.836970e-16 1 -1 -1.836970e-16 82.7755 68.7755)" fill="#CCCCCC" width="151.55" height="14"/>
	<g>
		<g>
			
				<rect x="-64.97" y="74.42" transform="matrix(-1.836970e-16 1 -1 -1.836970e-16 86.5833 64.9677)" fill="#CCCCCC" width="151.55" height="2.72"/>
			
				<rect x="-63.39" y="75.56" transform="matrix(-1.836970e-16 1 -1 -1.836970e-16 88.1592 63.3918)" fill="#FFFFFF" width="151.55" height="0.44"/>
		</g>
		<g>
			
				<rect x="-72.58" y="74.42" transform="matrix(-1.836970e-16 1 -1 -1.836970e-16 78.9678 72.5832)" fill="#CCCCCC" width="151.55" height="2.72"/>
			
				<rect x="-74.16" y="75.56" transform="matrix(-1.836970e-16 1 -1 -1.836970e-16 77.3919 74.1592)" fill="#999999" width="151.55" height="0.44"/>
		</g>
	</g>
</g>
</svg>
