<?xml version="1.0" encoding="utf-8"?>
<!-- Generator: Adobe Illustrator 23.0.3, SVG Export Plug-In . SVG Version: 6.00 Build 0)  -->
<svg version="1.0" id="Livello_1" xmlns="http://www.w3.org/2000/svg" xmlns:xlink="http://www.w3.org/1999/xlink" x="0px" y="0px"
	 viewBox="0 0 50 50" enable-background="new 0 0 50 50" xml:space="preserve">
<g>
	<rect x="0" y="0" transform="matrix(-1 -4.489266e-11 4.489266e-11 -1 50 50)" fill="#FF0000" width="50" height="50"/>
	<g>
		<path fill="#FFFFFF" d="M15.46,12.28c0.58-0.44,1.21-0.86,1.89-1.24c0.68-0.39,1.41-0.72,2.19-1.02c0.78-0.29,1.62-0.52,2.52-0.68
			c0.9-0.16,1.87-0.25,2.92-0.25c1.47,0,2.79,0.18,3.97,0.54c1.18,0.36,2.18,0.87,3.01,1.53c0.83,0.66,1.47,1.46,1.91,2.4
			c0.45,0.93,0.67,1.97,0.67,3.11c0,1.1-0.16,2.04-0.49,2.82c-0.33,0.78-0.75,1.47-1.25,2.05c-0.51,0.59-1.06,1.09-1.66,1.51
			c-0.6,0.42-1.17,0.82-1.71,1.19c-0.54,0.37-1.01,0.74-1.41,1.09c-0.4,0.36-0.64,0.76-0.74,1.2l-0.66,3h-4.97l-0.52-3.45
			c-0.02-0.09-0.03-0.17-0.03-0.26c-0.01-0.09-0.01-0.17-0.01-0.26c0-0.63,0.16-1.18,0.49-1.65s0.74-0.9,1.24-1.29
			c0.5-0.39,1.04-0.77,1.62-1.13c0.58-0.36,1.12-0.76,1.62-1.18c0.5-0.42,0.91-0.89,1.24-1.41c0.33-0.52,0.49-1.14,0.49-1.85
			c0-0.86-0.31-1.54-0.93-2.04c-0.62-0.51-1.47-0.76-2.54-0.76c-0.83,0-1.52,0.08-2.07,0.24c-0.56,0.16-1.03,0.33-1.43,0.52
			c-0.4,0.19-0.75,0.37-1.04,0.52c-0.3,0.16-0.59,0.24-0.89,0.24c-0.67,0-1.17-0.26-1.5-0.79L15.46,12.28z M19.77,37.25
			c0-0.51,0.11-0.99,0.32-1.43c0.21-0.44,0.5-0.83,0.87-1.16c0.37-0.33,0.8-0.59,1.3-0.78c0.5-0.19,1.05-0.29,1.64-0.29
			c0.58,0,1.12,0.1,1.62,0.29c0.5,0.19,0.94,0.45,1.31,0.78c0.38,0.33,0.67,0.71,0.88,1.16c0.21,0.44,0.32,0.92,0.32,1.43
			c0,0.51-0.11,1-0.32,1.44c-0.21,0.45-0.5,0.84-0.88,1.17c-0.38,0.33-0.81,0.59-1.31,0.77c-0.5,0.19-1.04,0.28-1.62,0.28
			c-0.59,0-1.14-0.09-1.64-0.28c-0.5-0.19-0.93-0.44-1.3-0.77c-0.37-0.33-0.66-0.72-0.87-1.17C19.88,38.25,19.77,37.77,19.77,37.25z
			"/>
	</g>
</g>
</svg>
