<?xml version="1.0" encoding="utf-8"?>
<!-- Generator: Adobe Illustrator 23.0.3, SVG Export Plug-In . SVG Version: 6.00 Build 0)  -->
<svg version="1.0" id="Livello_1" xmlns="http://www.w3.org/2000/svg" xmlns:xlink="http://www.w3.org/1999/xlink" x="0px" y="0px"
	 viewBox="0 0 101 50" enable-background="new 0 0 101 50" xml:space="preserve">
<g>
	
		<rect x="0" y="0" transform="matrix(-1 -2.222412e-11 2.222412e-11 -1 101 50)" opacity="0.44" fill="none" width="101" height="50"/>
	<path fill="#B3B3B3" d="M58.58,29.43l-0.02,8.27l-1.24,0.06l0.07-15.39l-14.54-1.19c-0.2-0.05-0.38-0.11-0.51-0.19
		c-0.13-0.08-0.21-0.16-0.25-0.22c-0.04-0.06-0.05-0.09-0.05-0.12c0-0.03,0.01-0.06,0.05-0.12c0.06-0.09,0.22-0.23,0.47-0.34
		c0.13-0.05,0.28-0.1,0.44-0.13l0.2-1.52c-0.62,0.04-1.19,0.21-1.66,0.5c-0.27,0.17-0.51,0.39-0.69,0.66
		c-0.18,0.27-0.3,0.6-0.3,0.96v18.02c0,0.35,0.12,0.69,0.3,0.96c0.27,0.41,0.67,0.69,1.13,0.88c0.44,0.19,0.95,0.29,1.49,0.3
		l13.86,1.08v-2.62l2.74-0.13V19.67L58.58,29.43z M51.68,32.12l-5.73-0.45L46.09,30l5.73,0.44L51.68,32.12z M54.23,28.1l-9.92-0.79
		l0.13-1.68l9.92,0.79L54.23,28.1z M43.19,20.82l1.29-8.7l15.96,2.38L57.53,34l0.09-8.5l1.49-10.01l-13.63-2.03l-1.11,7.44
		L43.19,20.82z M47.06,15.54l9.88,1.47l-0.18,1.21l-9.88-1.47L47.06,15.54z M46.72,17.84l9.88,1.47l-0.18,1.21l-9.88-1.47
		L46.72,17.84z M46.37,20.14l9.88,1.47l-0.03,0.19l-9.99-0.76L46.37,20.14z"/>
</g>
</svg>
