<?xml version="1.0" encoding="UTF-8" standalone="no"?>
<!-- Generator: Adobe Illustrator 23.0.3, SVG Export Plug-In . SVG Version: 6.00 Build 0)  -->

<svg
   xmlns:dc="http://purl.org/dc/elements/1.1/"
   xmlns:cc="http://creativecommons.org/ns#"
   xmlns:rdf="http://www.w3.org/1999/02/22-rdf-syntax-ns#"
   xmlns:svg="http://www.w3.org/2000/svg"
   xmlns="http://www.w3.org/2000/svg"
   xmlns:sodipodi="http://sodipodi.sourceforge.net/DTD/sodipodi-0.dtd"
   xmlns:inkscape="http://www.inkscape.org/namespaces/inkscape"
   version="1.0"
   id="Livello_1"
   x="0px"
   y="0px"
   viewBox="0 0 32 32"
   enable-background="new 0 0 101 50"
   xml:space="preserve"
   sodipodi:docname="ASEM_Layout_14_P01_Levigatrice_OFF_crop.svg"
   width="32"
   height="32"
   inkscape:version="0.92.3 (2405546, 2018-03-11)"><metadata
   id="metadata31"><rdf:RDF><cc:Work
       rdf:about=""><dc:format>image/svg+xml</dc:format><dc:type
         rdf:resource="http://purl.org/dc/dcmitype/StillImage" /><dc:title></dc:title></cc:Work></rdf:RDF></metadata><defs
   id="defs29" /><sodipodi:namedview
   pagecolor="#ffffff"
   bordercolor="#666666"
   borderopacity="1"
   objecttolerance="10"
   gridtolerance="10"
   guidetolerance="10"
   inkscape:pageopacity="0"
   inkscape:pageshadow="2"
   inkscape:window-width="2560"
   inkscape:window-height="1377"
   id="namedview27"
   showgrid="false"
   inkscape:zoom="11.845789"
   inkscape:cx="33.205028"
   inkscape:cy="21.427011"
   inkscape:window-x="-8"
   inkscape:window-y="-8"
   inkscape:window-maximized="1"
   inkscape:current-layer="g24" />
<g
   id="g24"
   transform="translate(0,-18)">
	
		<rect
   x="0.25999999"
   y="0.68000001"
   transform="rotate(-180,50.75835,25.6783)"
   width="101"
   height="50"
   id="rect2"
   style="opacity:0.43999999;fill:none" />
	<g
   id="g22"
   transform="matrix(1.0087424,0,0,1.0080645,-35.203765,6.0967749)">
		<g
   id="g16">
			<path
   d="m 36.24,24.59 1.6,0.68 c 0.35,-1.9 1.09,-3.65 2.16,-5.17 l -1.58,-0.67 -0.34,0.81 -0.69,-0.29 -1.5,3.55 0.69,0.29 z"
   id="path4"
   inkscape:connector-curvature="0"
   style="fill:#b3b3b3" />
			<path
   d="m 63.91,25.17 1.37,-0.58 -0.34,-0.81 0.69,-0.29 -1.5,-3.55 -0.69,0.29 -0.34,-0.81 -1.39,0.59 c 1.08,1.52 1.84,3.27 2.2,5.16 z"
   id="path6"
   inkscape:connector-curvature="0"
   style="fill:#b3b3b3" />
			<path
   d="m 65.28,30.76 -1.37,-0.58 c -0.36,1.89 -1.13,3.64 -2.2,5.15 l 1.39,0.59 0.34,-0.81 0.69,0.29 1.5,-3.55 -0.69,-0.29 z"
   id="path8"
   inkscape:connector-curvature="0"
   style="fill:#b3b3b3" />
			<path
   d="m 58.41,38.61 c -1.53,1.05 -3.29,1.79 -5.18,2.12 l 0.62,1.47 0.81,-0.34 0.29,0.69 3.55,-1.5 -0.29,-0.69 0.79,-0.33 z"
   id="path10"
   inkscape:connector-curvature="0"
   style="fill:#b3b3b3" />
			<path
   d="m 43.17,38.47 -0.66,1.56 0.81,0.34 -0.29,0.69 3.55,1.5 0.29,-0.69 0.81,0.34 0.63,-1.5 c -1.89,-0.38 -3.63,-1.16 -5.14,-2.24 z"
   id="path12"
   inkscape:connector-curvature="0"
   style="fill:#b3b3b3" />
			<path
   d="m 37.84,30.09 -1.6,0.68 0.34,0.81 -0.69,0.29 1.5,3.55 0.69,-0.29 0.34,0.81 1.58,-0.67 c -1.07,-1.54 -1.81,-3.29 -2.16,-5.18 z"
   id="path14"
   inkscape:connector-curvature="0"
   style="fill:#b3b3b3" />
		</g>
		<path
   d="m 50.88,14.4 c -7.33,0 -13.27,5.94 -13.27,13.27 0,7.33 5.94,13.27 13.27,13.27 7.33,0 13.27,-5.94 13.27,-13.27 C 64.16,20.35 58.21,14.4 50.88,14.4 Z m 0,22.3 c -4.99,0 -9.03,-4.04 -9.03,-9.03 0,-4.99 4.04,-9.03 9.03,-9.03 4.99,0 9.03,4.04 9.03,9.03 0,4.99 -4.04,9.03 -9.03,9.03 z"
   id="path18"
   inkscape:connector-curvature="0"
   style="fill:#b3b3b3" />
		<path
   d="m 42.51,15.33 0.81,-0.34 -0.29,-0.69 3.55,-1.5 0.29,0.69 0.81,-0.34 0.63,1.5 c -1.89,0.37 -3.63,1.15 -5.14,2.23 z m 15.9,1.42 0.6,-1.42 -0.81,-0.34 0.29,-0.69 -3.55,-1.5 -0.29,0.69 -0.81,-0.34 -0.62,1.47 c 1.9,0.34 3.66,1.07 5.19,2.13 z"
   id="path20"
   inkscape:connector-curvature="0"
   style="fill:#b3b3b3" />
	</g>
</g>
</svg>