<?xml version="1.0" encoding="utf-8"?>
<!-- Generator: Adobe Illustrator 23.0.3, SVG Export Plug-In . SVG Version: 6.00 Build 0)  -->
<svg version="1.0" id="Livello_1" xmlns="http://www.w3.org/2000/svg" xmlns:xlink="http://www.w3.org/1999/xlink" x="0px" y="0px"
	 viewBox="0 0 50 50" enable-background="new 0 0 50 50" xml:space="preserve">
<g>
	<rect fill="#F7931E" width="50" height="50"/>
	<g>
		<g>
			<g>
				<path fill="#FFFFFF" d="M32.92,31.47c-0.84-1.27-1.29-2.74-1.29-4.26v-4.32c0-1.77-0.69-3.44-1.95-4.69
					c-1.07-1.06-2.43-1.72-3.9-1.89v-1.64h-1.59v1.64c-3.27,0.41-5.81,3.23-5.81,6.64v4.26c0,1.52-0.45,3-1.29,4.26l-1.52,2.28h7.19
					c0.33,0.93,1.21,1.59,2.25,1.59c1.04,0,1.92-0.66,2.25-1.59h7.19L32.92,31.47z M18.53,32.16c0.94-1.48,1.43-3.19,1.43-4.95
					v-4.26c0-2.8,2.25-5.09,5.02-5.1c0.01,0,0.01,0,0.02,0c1.34,0,2.6,0.52,3.55,1.47c0.96,0.95,1.48,2.22,1.48,3.57v4.32
					c0,1.76,0.49,3.47,1.43,4.95H18.53z"/>
			</g>
		</g>
		<g>
			<g>
				<path fill="#FFFFFF" d="M36.32,19.56l-1.12,1.12c1.15,1.15,1.79,2.68,1.79,4.31c0,1.59-0.61,3.1-1.72,4.24l1.14,1.11
					c1.4-1.44,2.17-3.34,2.17-5.35C38.57,22.95,37.77,21.02,36.32,19.56z"/>
			</g>
		</g>
		<g>
			<g>
				<path fill="#FFFFFF" d="M34.07,21.81l-1.12,1.12c0.55,0.55,0.85,1.28,0.85,2.06c0,0.77-0.3,1.49-0.83,2.04l1.14,1.11
					c0.83-0.85,1.28-1.97,1.28-3.15C35.39,23.8,34.92,22.66,34.07,21.81z"/>
			</g>
		</g>
		<g>
			<g>
				<path fill="#FFFFFF" d="M14.8,20.69l-1.12-1.12c-1.45,1.45-2.25,3.38-2.25,5.44c0,2.01,0.77,3.91,2.17,5.35l1.14-1.11
					c-1.11-1.14-1.72-2.65-1.72-4.24C13.02,23.37,13.65,21.84,14.8,20.69z"/>
			</g>
		</g>
		<g>
			<g>
				<path fill="#FFFFFF" d="M17.05,22.94l-1.12-1.12c-0.85,0.85-1.32,1.98-1.32,3.19c0,1.18,0.46,2.3,1.28,3.15l1.14-1.11
					C16.5,26.49,16.2,25.77,16.2,25C16.2,24.22,16.5,23.49,17.05,22.94z"/>
			</g>
		</g>
	</g>
</g>
</svg>
