<?xml version="1.0" encoding="UTF-8" standalone="no"?>
<svg
   xmlns:dc="http://purl.org/dc/elements/1.1/"
   xmlns:cc="http://creativecommons.org/ns#"
   xmlns:rdf="http://www.w3.org/1999/02/22-rdf-syntax-ns#"
   xmlns:svg="http://www.w3.org/2000/svg"
   xmlns="http://www.w3.org/2000/svg"
   xmlns:sodipodi="http://sodipodi.sourceforge.net/DTD/sodipodi-0.dtd"
   xmlns:inkscape="http://www.inkscape.org/namespaces/inkscape"
   width="32"
   height="32"
   viewBox="0 0 32 32"
   version="1.1"
   id="svg11"
   sodipodi:docname="Hide_white.svg"
   inkscape:version="0.92.3 (2405546, 2018-03-11)">
  <metadata
     id="metadata15">
    <rdf:RDF>
      <cc:Work
         rdf:about="">
        <dc:format>image/svg+xml</dc:format>
        <dc:type
           rdf:resource="http://purl.org/dc/dcmitype/StillImage" />
        <dc:title>16x16/View_highlight</dc:title>
      </cc:Work>
    </rdf:RDF>
  </metadata>
  <sodipodi:namedview
     pagecolor="#ffffff"
     bordercolor="#666666"
     borderopacity="1"
     objecttolerance="10"
     gridtolerance="10"
     guidetolerance="10"
     inkscape:pageopacity="0"
     inkscape:pageshadow="2"
     inkscape:window-width="1684"
     inkscape:window-height="1045"
     id="namedview13"
     showgrid="false"
     inkscape:zoom="14.75"
     inkscape:cx="-4.6440678"
     inkscape:cy="8"
     inkscape:window-x="0"
     inkscape:window-y="0"
     inkscape:window-maximized="0"
     inkscape:current-layer="svg11" />
  <!-- Generator: Sketch 46.2 (44496) - http://www.bohemiancoding.com/sketch -->
  <title
     id="title2">16x16/View_highlight</title>
  <desc
     id="desc4">Created with Sketch.</desc>
  <defs
     id="defs6" />
  <g
     id="icons-16x16"
     style="fill:#ffffff;fill-rule:evenodd;stroke:none;stroke-width:1;fill-opacity:0.94117647"
     transform="matrix(1.875,0,0,1.8,1,1.6)">
    <g
       id="16x16/View_highlight"
       style="fill:#ffffff;fill-opacity:0.94117647">
      <path
         d="M 0,8 C 1.3170953,5.0618712 4.4030726,3 8,3 c 3.596927,0 6.682905,2.0618712 8,5 -1.317095,2.938129 -4.403073,5 -8,5 C 4.4030726,13 1.3170953,10.938129 0,8 Z m 8,2.983617 c 1.8192909,0 3.294118,-1.3900396 3.294118,-3.1047401 0,-1.7147005 -1.4748271,-3.1047398 -3.294118,-3.1047398 -1.8192909,0 -3.2941176,1.3900393 -3.2941176,3.1047398 0,1.7147005 1.4748267,3.1047401 3.2941176,3.1047401 z M 8,9.2094797 c -0.7796961,0 -1.4117647,-0.5957312 -1.4117647,-1.3306028 0,-0.7348716 0.6320686,-1.3306028 1.4117647,-1.3306028 0.7796961,0 1.4117647,0.5957312 1.4117647,1.3306028 0,0.7348716 -0.6320686,1.3306028 -1.4117647,1.3306028 z"
         id="View"
         inkscape:connector-curvature="0"
         style="fill:#ffffff;fill-opacity:0.94117647" />
    </g>
  </g>
  <path
     style="fill:#ff54ff;fill-opacity:1;stroke:#ffffff;stroke-width:1.83858228px;stroke-linecap:butt;stroke-linejoin:miter;stroke-opacity:1"
     d="M 1.472917,24.221704 30.527083,7.9751407"
     id="path825"
     inkscape:connector-curvature="0" />
</svg>
