<?xml version="1.0" encoding="UTF-8" standalone="no"?>
<svg
   xmlns:dc="http://purl.org/dc/elements/1.1/"
   xmlns:cc="http://creativecommons.org/ns#"
   xmlns:rdf="http://www.w3.org/1999/02/22-rdf-syntax-ns#"
   xmlns:svg="http://www.w3.org/2000/svg"
   xmlns="http://www.w3.org/2000/svg"
   xmlns:sodipodi="http://sodipodi.sourceforge.net/DTD/sodipodi-0.dtd"
   xmlns:inkscape="http://www.inkscape.org/namespaces/inkscape"
   width="32"
   height="32"
   viewBox="0 0 16 16"
   version="1.1"
   id="svg13"
   sodipodi:docname="Report.svg"
   inkscape:version="0.92.4 (5da689c313, 2019-01-14)">
  <metadata
     id="metadata19">
    <rdf:RDF>
      <cc:Work
         rdf:about="">
        <dc:format>image/svg+xml</dc:format>
        <dc:type
           rdf:resource="http://purl.org/dc/dcmitype/StillImage" />
      </cc:Work>
    </rdf:RDF>
  </metadata>
  <defs
     id="defs17" />
  <sodipodi:namedview
     pagecolor="#ffffff"
     bordercolor="#666666"
     borderopacity="1"
     objecttolerance="10"
     gridtolerance="10"
     guidetolerance="10"
     inkscape:pageopacity="0"
     inkscape:pageshadow="2"
     inkscape:window-width="2495"
     inkscape:window-height="1417"
     id="namedview15"
     showgrid="false"
     inkscape:zoom="7.375"
     inkscape:cx="-7.7966102"
     inkscape:cy="16"
     inkscape:window-x="1977"
     inkscape:window-y="-8"
     inkscape:window-maximized="1"
     inkscape:current-layer="svg13" />
  <!-- Generator: Sketch 61.2 (89653) - https://sketch.com -->
  <title
     id="title2">Report</title>
  <desc
     id="desc4">Created with Sketch.</desc>
  <g
     id="Report"
     transform="matrix(1.2169024,0,0,1.1356015,-1.7355185,-1.0848608)"
     style="fill:none;fill-rule:evenodd;stroke:none;stroke-width:1">
    <path
       d="m 9.9865106,2.0050773 0.018454,2.9969194 2.995338,6.627e-4 L 13.000079,13 c -4.4e-5,0.552274 -0.447754,1 -1.000028,1 H 4.0003034 c -0.552283,0 -1,-0.447715 -1,-1 V 3 C 2.9996306,2.4871642 3.3856226,2.0644928 3.8829578,2.0067277 l 0.1173456,-0.006 z M 8.992,3.004 4,3 4.0003052,13 H 12.000079 V 6.002 L 9.0111028,6.0017768 Z"
       id="Rectangle"
       inkscape:connector-curvature="0"
       style="fill:#b3b3b3" />
    <path
       d="M 9.5631165,2.1492293 C 9.7374893,1.9764731 10.007001,1.9584429 10.201238,2.0943451 l 0.06898,0.058177 2.587439,2.6116531 c 0.194351,0.1961694 0.192877,0.5127484 -0.0033,0.7070991 -0.174373,0.1727561 -0.443884,0.1907863 -0.638121,0.054884 L 12.147263,5.4679814 9.5598233,2.8563284 C 9.3654727,2.660159 9.3669471,2.3435799 9.5631165,2.1492293 Z"
       id="Path-10"
       inkscape:connector-curvature="0"
       style="fill:#b3b3b3" />
    <rect
       id="Rectangle-Copy-3"
       x="9"
       y="8"
       width="1"
       height="4"
       rx="0.5"
       style="fill:#b3b3b3" />
    <rect
       id="Rectangle-Copy-4"
       x="7"
       y="9"
       width="1"
       height="3"
       rx="0.5"
       style="fill:#b3b3b3" />
    <rect
       id="Rectangle-Copy-5"
       x="5"
       y="10"
       width="1"
       height="2"
       rx="0.5"
       style="fill:#b3b3b3" />
    <circle
       id="Oval"
       cx="6.5"
       cy="5.5"
       r="1.5"
       style="fill:#b3b3b3" />
  </g>
</svg>
