<?xml version="1.0" encoding="UTF-8" standalone="no"?>
<svg
   xmlns:dc="http://purl.org/dc/elements/1.1/"
   xmlns:cc="http://creativecommons.org/ns#"
   xmlns:rdf="http://www.w3.org/1999/02/22-rdf-syntax-ns#"
   xmlns:svg="http://www.w3.org/2000/svg"
   xmlns="http://www.w3.org/2000/svg"
   xmlns:sodipodi="http://sodipodi.sourceforge.net/DTD/sodipodi-0.dtd"
   xmlns:inkscape="http://www.inkscape.org/namespaces/inkscape"
   width="32"
   height="32"
   viewBox="0 0 32 32"
   version="1.1"
   id="svg11"
   sodipodi:docname="EUConverter_normal.svg"
   inkscape:version="0.92.3 (2405546, 2018-03-11)">
  <metadata
     id="metadata15">
    <rdf:RDF>
      <cc:Work
         rdf:about="">
        <dc:format>image/svg+xml</dc:format>
        <dc:type
           rdf:resource="http://purl.org/dc/dcmitype/StillImage" />
        <dc:title>16x16/EUConverter_normal</dc:title>
      </cc:Work>
    </rdf:RDF>
  </metadata>
  <sodipodi:namedview
     pagecolor="#ffffff"
     bordercolor="#666666"
     borderopacity="1"
     objecttolerance="10"
     gridtolerance="10"
     guidetolerance="10"
     inkscape:pageopacity="0"
     inkscape:pageshadow="2"
     inkscape:window-width="1206"
     inkscape:window-height="902"
     id="namedview13"
     showgrid="false"
     inkscape:zoom="7.375"
     inkscape:cx="-3.7165311"
     inkscape:cy="10.240119"
     inkscape:window-x="0"
     inkscape:window-y="0"
     inkscape:window-maximized="0"
     inkscape:current-layer="16x16/EUConverter_normal" />
  <!-- Generator: Sketch 46.2 (44496) - http://www.bohemiancoding.com/sketch -->
  <title
     id="title2">16x16/EUConverter_normal</title>
  <desc
     id="desc4">Created with Sketch.</desc>
  <defs
     id="defs6" />
  <g
     id="New-Icons-16x16"
     style="fill:none;fill-rule:evenodd;stroke:none;stroke-width:1"
     transform="translate(0,16)">
    <g
       id="16x16/EUConverter_normal"
       style="fill:#7a7a7a">
      <path
         d="M 6.6428706,6.7233487 V -1.875 H 8.5238275 L 4.7619137,-5.625 1,-1.875 H 2.8809569 V 8.1355931 11.25 13.125 H 17.928612 V 15 L 21.690526,11.25 17.928612,7.5 V 9.375 H 9.3029454 L 20.624806,-1.9110045 17.964731,-4.5626549 Z M 31,13.615037 h -2.140798 l -1.38062,-2.602056 c -0.05218,-0.09658 -0.106199,-0.274877 -0.162101,-0.534898 h -0.02237 c -0.02609,0.122588 -0.08756,0.308309 -0.184446,0.557186 l -1.386211,2.579768 H 23.571477 L 26.125903,9.620019 23.789471,5.625 h 2.196694 l 1.145859,2.3958975 c 0.08944,0.1894425 0.169549,0.4141725 0.24035,0.6741938 h 0.02237 c 0.04471,-0.1560188 0.128563,-0.3881719 0.251529,-0.6964819 L 28.920687,5.625 h 2.012238 L 28.529418,9.586588 Z M 7.9589957,-15 5.3486735,-9.8516077 v 2.841645 H 3.5432474 v -2.808214 L 1,-15 h 2.0625458 l 1.2911869,2.980942 c 0.022359,0.05572 0.083844,0.273018 0.1844561,0.651906 h 0.022359 c 0.048442,-0.26745 0.1061998,-0.477321 0.1732749,-0.629619 L 6.047368,-15 Z"
         id="Combined-Shape"
         style="fill:#b3b3b3;fill-opacity:1;stroke-width:1.87797606"
         inkscape:connector-curvature="0"
         sodipodi:nodetypes="cccccccccccccccccccccccccccccccccccccccccccccccccc" />
    </g>
  </g>
</svg>
