<?xml version="1.0" encoding="UTF-8" standalone="no"?>
<svg
   xmlns:dc="http://purl.org/dc/elements/1.1/"
   xmlns:cc="http://creativecommons.org/ns#"
   xmlns:rdf="http://www.w3.org/1999/02/22-rdf-syntax-ns#"
   xmlns:svg="http://www.w3.org/2000/svg"
   xmlns="http://www.w3.org/2000/svg"
   xmlns:sodipodi="http://sodipodi.sourceforge.net/DTD/sodipodi-0.dtd"
   xmlns:inkscape="http://www.inkscape.org/namespaces/inkscape"
   width="32"
   height="32"
   viewBox="0 0 32 32"
   version="1.1"
   id="svg11"
   sodipodi:docname="Trend_normal.svg"
   inkscape:version="0.92.3 (2405546, 2018-03-11)">
  <metadata
     id="metadata15">
    <rdf:RDF>
      <cc:Work
         rdf:about="">
        <dc:format>image/svg+xml</dc:format>
        <dc:type
           rdf:resource="http://purl.org/dc/dcmitype/StillImage" />
        <dc:title>16x16/Trend_normal</dc:title>
      </cc:Work>
    </rdf:RDF>
  </metadata>
  <sodipodi:namedview
     pagecolor="#ffffff"
     bordercolor="#666666"
     borderopacity="1"
     objecttolerance="10"
     gridtolerance="10"
     guidetolerance="10"
     inkscape:pageopacity="0"
     inkscape:pageshadow="2"
     inkscape:window-width="1102"
     inkscape:window-height="937"
     id="namedview13"
     showgrid="false"
     inkscape:zoom="14.75"
     inkscape:cx="8"
     inkscape:cy="8"
     inkscape:window-x="0"
     inkscape:window-y="0"
     inkscape:window-maximized="0"
     inkscape:current-layer="New-Icons-16x16" />
  <!-- Generator: Sketch 46.2 (44496) - http://www.bohemiancoding.com/sketch -->
  <title
     id="title2">16x16/Trend_normal</title>
  <desc
     id="desc4">Created with Sketch.</desc>
  <defs
     id="defs6" />
  <g
     id="New-Icons-16x16"
     style="fill:none;fill-rule:evenodd;stroke:none;stroke-width:1"
     transform="matrix(1.875,0,0,1.875,1,1.625)">
    <g
       id="16x16/Trend_normal"
       style="fill:#b3b3b3;fill-rule:nonzero;fill-opacity:1">
      <path
         d="M 13.870855,6.9958974 11.792569,10.112041 C 11.925349,10.379578 12,10.681071 12,11 12,12.10457 11.10457,13 10,13 8.8954305,13 8,12.10457 8,11 8,10.677849 8.076166,10.373488 8.2114737,10.103943 L 6.1642654,6.993351 C 6.110092,6.997755 6.0553082,7 6,7 5.9690073,7 5.9381793,6.999295 5.9075311,6.9979003 L 3.7981265,10.123329 C 3.9274309,10.388047 4,10.685549 4,11 4,12.10457 3.1045695,13 2,13 0.8954305,13 0,12.10457 0,11 0,9.8954305 0.8954305,9 2,9 2.047107,9 2.093833,9.00163 2.1401259,9.00483 l 2.08289,-3.0861429 C 4.0805057,5.643597 4,5.3312001 4,5 4,3.8954305 4.8954305,3 6,3 7.1045695,3 8,3.8954305 8,5 8,5.3056195 7.9314499,5.5952283 7.8088867,5.8542894 L 9.8814811,9.0034535 C 9.9206947,9.0011619 9.9602117,9 10,9 c 0.04285,0 0.08538,0.00135 0.12756,0.004 L 12.206727,5.8865385 C 12.074386,5.6193545 12,5.3183642 12,5 c 0,-1.1045695 0.895431,-2 2,-2 1.10457,0 2,0.8954305 2,2 0,1.1045695 -0.89543,2 -2,2 -0.04339,0 -0.08645,-0.00138 -0.129145,-0.0041 z"
         id="Combined-Shape"
         inkscape:connector-curvature="0"
         style="fill:#b3b3b3;fill-opacity:1" />
    </g>
  </g>
</svg>
