<?xml version="1.0" encoding="UTF-8"?>
<svg width="16px" height="16px" viewBox="0 0 16 16" version="1.1" xmlns="http://www.w3.org/2000/svg" xmlns:xlink="http://www.w3.org/1999/xlink">
    <!-- Generator: Sketch 46.2 (44496) - http://www.bohemiancoding.com/sketch -->
    <title>16x16/Video_normal</title>
    <desc>Created with Sketch.</desc>
    <defs></defs>
    <g id="New-Icons-16x16" stroke="none" stroke-width="1" fill="none" fill-rule="evenodd">
        <g id="16x16/Video_normal" fill="#7A7A7A">
            <path d="M13,14 L3,14 L3,13 L1,13 L1,14 L0,14 L0,2 L1,2 L1,3 L3,3 L3,2 L13,2 L13,3 L15,3 L15,2 L16,2 L16,14 L15,14 L15,13 L13,13 L13,14 Z M1,5 L1,7 L3,7 L3,5 L1,5 Z M1,9 L1,11 L3,11 L3,9 L1,9 Z M13,5 L13,7 L15,7 L15,5 L13,5 Z M13,9 L13,11 L15,11 L15,9 L13,9 Z M11,8 L7,5 L7,11 L11,8 Z" id="Combined-Shape"></path>
        </g>
    </g>
</svg>